<?xml version="1.0" standalone="no"?>
<!DOCTYPE svg PUBLIC "-//W3C//DTD SVG 1.1//EN" "http://www.w3.org/Graphics/SVG/1.1/DTD/svg11.dtd" >
<!--
2013-9-30: Created.
-->
<svg>
<metadata>
Created by iconfont
</metadata>
<defs>

<font id="iconfont" horiz-adv-x="1024" >
  <font-face
    font-family="iconfont"
    font-weight="500"
    font-stretch="normal"
    units-per-em="1024"
    ascent="896"
    descent="-128"
  />
    <missing-glyph />
    
    <glyph glyph-name="ditufuwu" unicode="&#58881;" d="M71.216843-30.837076 330.500511 87.684294 330.500511 798.837076 71.216843 680.265564 71.216843-30.837076zM693.498465 680.265564l0-711.101617 259.283668 118.520347L952.782134 798.837076 693.498465 680.265564zM382.357654 87.684294l259.283668-118.520347L641.641322 680.265564 382.357654 798.837076 382.357654 87.684294z"  horiz-adv-x="1024" />

    
    <glyph glyph-name="edit" unicode="&#59704;" d="M872.151 743.866c-22.912 22.002-48.224 33.134-75.224 33.134-42.22 0-73.017-27.324-81.455-35.697-11.877-11.682-348.631-348.404-348.631-348.404-2.629-2.693-4.576-6.004-5.549-9.638-9.119-33.75-54.844-183.613-55.298-185.106-2.369-7.658-0.26-16.031 5.387-21.646 4.057-4.057 9.475-6.198 15.025-6.198 2.174 0 4.381 0.324 6.522 0.974 1.557 0.552 155.996 50.527 181.406 58.121 3.342 1.006 6.393 2.823 8.892 5.257 16.064 15.869 325.557 321.014 350.643 346.879 25.897 26.74 38.748 54.584 38.26 82.752-0.455 27.779-13.987 54.584-39.981 79.572zM837.396 616.947c-14.182-14.603-124.875-124.129-329.03-325.525l-15.609-15.447c-23.397-7.269-79.475-25.28-121.824-38.975 13.63 45.141 30.018 99.595 37.319 125.362 43.647 43.647 332.146 332.08 343.115 342.92 2.142 2.109 21.613 20.866 45.563 20.866 13.63 0 26.74-6.198 40.078-19.017 15.934-15.318 24.112-30.018 24.371-43.745 0.228-14.116-7.853-29.759-23.982-46.439zM733.322 13.471l-584.297 0 0 635.928 356.939 0 51.371 49.522-1.33 1.33-406.979 0c-28.038 0-50.787-22.781-50.787-50.853l0-635.928c0-28.072 22.748-50.853 50.787-50.853l584.297 0c28.038 0 50.755 22.781 50.755 50.853l0 372.548-50.755-48.548 0-324z"  horiz-adv-x="1024" />

    
    <glyph glyph-name="kongjianchaxun" unicode="&#59546;" d="M491.632 554.251L297.339 554.251 297.339 524.9549999999999 441.181 524.9549999999999 284.686 307.88300000000003 284.686 296.554 488.301 296.554 488.301 325.85699999999997 334.466 325.85699999999997 491.632 544.435ZM524.245 164.67200000000002c0 0-12.9305 8.35325-7.60419 43.3391 0 0-35.7277 11.4047-65.379 34.952 0 0-4.20886 6.09584-7.04751 15.0539-36.1432-3.9735-83.4046-3.19271-145.2 3.81386-93.6939 10.6168-2.52245 62.6642-14.7182 138.083-1.00693 3.41068-1.80204 6.89197-2.327 10.4111-0.194428 0.680499-0.398066 1.36407-0.611937 2.04866-3.12211 2.95326-26.7809 24.4713-64.2503 35.081 0 0-55.499 18.9956-20.5214 92.7341 0 0 42.5685 77.5472-3.80363 82.8745 0 0-22.8085-12.9182-31.175-12.9182 0 0-12.0423 3.36872-9.88002 8.35325 0 0 28.1245 75.2652 92.7422 51.6913 0 0 27.3734-12.161 31.9384-33.4519 0 0 15.017-13.6744 64.147 19.7713 0 0 52.1559-5.32835 14.9137-31.921-37.2535-26.6121-45.62-31.1771-1.52473-44.1076 0 0 53.9855-16.7075 41.8174 47.1468 0 0 43.9469 40.9855 157.002-96.244 15.9503-15.2114 22.4626-35.5384 14.2414-62.3408-8.78918-28.6587-5.40715-62.6222-6.04058-94.9301 34.4639 46.4008 88.3666 77.494 149.662 81.2464C695.509 620.174 556.918 749.25 388.159 749.25c-178.871 0-323.856-144.979-323.856-323.837 0-178.851 144.986-323.852 323.856-323.852 59.9207 0 116.029 16.2941 164.17 44.6632-4.40636 6.97588-8.39316 14.2403-11.9348 21.7596C535.158 166.43499999999994 529.767 165.293 524.245 164.67200000000002ZM948.79 82.52700000000004l-73.2626 73.4601c-1.25764 1.23308-2.63092 2.18681-3.94075 3.22853 18.1054 27.7817 28.6833 60.898 28.6833 96.5878 0 97.9857-79.4024 177.409-177.434 177.409-97.955 0-177.434-79.4229-177.434-177.409 0-98.0235 79.4792-177.422 177.434-177.422 35.653 0 68.8245 10.6045 96.6564 28.7109 1.01819-1.35383 1.9453-2.69641 3.17839-3.91005l73.2749-73.4724c7.29924-7.3105 16.86-10.9596 26.4095-10.9596 9.54847 0 19.0836 3.64911 26.4085 10.9351C963.336 44.28200000000004 963.336 67.93100000000004 948.79 82.52700000000004ZM722.836 134.38400000000001c-66.9181 0-121.401 54.4829-121.401 121.419 0 66.8986 54.4829 121.407 121.401 121.407s121.4-54.5084 121.4-121.407C844.236 188.86699999999996 789.754 134.38400000000001 722.836 134.38400000000001ZM796.009 323.212c-54.8257-25.3207-89.5485-101.291-89.5485-101.291l-21.4127 37.3742-44.1198-24.1019c18.7296-6.05183 45.4686-25.334 68.1901-50.6618 16.0577 26.5364 65.5069 80.7962 89.5495 85.6211C789.309 289.447 794.662 305.125 796.009 323.212Z"  horiz-adv-x="1024" />

    
    <glyph glyph-name="shuxingchaxun" unicode="&#59565;" d="M644.661 692.5840000000001L568.345 768.652 562.416 774.547 562.416 686.668 650.603 686.668ZM164.923 122.01400000000001L164.923 167.058 164.923 622.3340000000001 64.303 622.3340000000001 64.303 20.452999999999974 495.721 20.452999999999974 495.721 122.01400000000001 209.985 122.01400000000001ZM650.563 442.35L650.563 647.548l-88.1476 0-39.12 0 0 39.12 0 87.8785 0 0.379647L209.985 774.927l0-607.868L512.598 167.058c-7.70345 22.1157-11.9051 45.8728-11.9051 70.6143C500.693 333.631 563.681 414.879 650.563 442.35ZM948.457 58.72199999999998l-75.4115 75.6162c-1.2822 1.26992-2.70869 2.25127-4.04513 3.32472 18.6385 28.5963 29.5265 62.6847 29.5265 99.4224 0 100.861-81.7468 182.616-182.642 182.616-100.843 0-182.642-81.755-182.642-182.616 0-100.902 81.8-182.629 182.642-182.629 36.6988 0 70.8322 10.9156 99.4817 29.5531 1.06015-1.39374 2.01591-2.77521 3.27151-4.02466l75.4258-75.6295c7.52539-7.52539 17.3542-11.2809 27.1974-11.2809 9.82783 0 19.6577 3.75656 27.1821 11.2553C963.443 19.352999999999952 963.443 43.696000000000026 948.457 58.72199999999998ZM715.885 112.101c-68.8818 0-124.963 56.0823-124.963 124.984 0 68.8624 56.0813 124.969 124.963 124.969s124.964-56.1069 124.964-124.969C840.849 168.18399999999997 784.768 112.101 715.885 112.101ZM791.193 306.47c-56.4231-26.0657-92.1784-104.266-92.1784-104.266l-22.0389 38.4722-45.4021-24.808c19.2781-6.22989 46.8009-26.0769 70.1906-52.1487 16.5172 27.3141 67.4297 83.1672 92.1784 88.1343C784.308 271.71500000000003 789.819 287.852 791.193 306.47Z"  horiz-adv-x="1024" />

    
    <glyph glyph-name="fuwuziyuan" unicode="&#59076;" d="M956.055027 87.118406c0-32.631188-28.375258-59.058071-63.375399-59.058071L132.657834 28.060335c-35.000142 0-63.375399 26.426883-63.375399 59.058071L69.282435 264.467603c0 10.998495 4.076852 20.696368 9.695826 29.504988-5.618974 8.867972-9.695826 18.622126-9.695826 29.617551L195.915553 678.299793c0.060375 32.69054 28.433586 59.117422 63.376423 59.117422L765.989203 737.417215c34.999119 0 63.374376-26.426883 63.374376-59.117422l126.692471-354.708628c0-10.995425-4.018523-20.74958-9.697873-29.617551 5.679349-8.80862 9.697873-18.506493 9.697873-29.504988L956.05605 87.118406 956.055027 87.118406 956.055027 87.118406zM765.989203 560.001503c0 32.756031-28.316929 59.180867-63.253626 59.180867L322.603931 619.18237c-34.997072 0-63.312978-26.424836-63.312978-59.180867l-63.316048-236.410338 190.060707 0L386.035612 207.189062c0-32.638351 28.378327-59.121516 63.316048-59.121516l126.57479 0c34.995025 0 63.374376 26.484188 63.374376 59.121516L639.300826 323.591165l190.06173 0L765.989203 560.001503 765.989203 560.001503 765.989203 560.001503zM320.654532 441.827033l382.081045 0 0-57.285704L320.654532 384.541329 320.654532 441.827033 320.654532 441.827033 320.654532 441.827033zM320.654532 560.001503l382.081045 0 0-57.285704L320.654532 502.715799 320.654532 560.001503 320.654532 560.001503 320.654532 560.001503zM320.654532 560.001503"  horiz-adv-x="1024" />

    
    <glyph glyph-name="rename" unicode="&#59347;" d="M544 128l-384 0C142.336 128 128 142.336 128 160l0 384C128 561.664 142.336 576 160 576l384 0C561.664 576 576 561.664 576 544S561.664 512 544 512L192 512l0-320 352 0C561.664 192 576 177.664 576 160S561.664 128 544 128zM288 384C270.336 384 256 369.664 256 352S270.336 320 288 320l192 0C497.664 320 512 334.336 512 352S497.664 384 480 384L288 384zM800 0 704 0 704 704l96 0C817.664 704 832 718.336 832 736S817.664 768 800 768l-256 0C526.336 768 512 753.664 512 736S526.336 704 544 704L640 704l0-704L544 0C526.336 0 512-14.336 512-32S526.336-64 544-64l256 0c17.664 0 32 14.336 32 32S817.664 0 800 0zM864 576l-64 0C782.336 576 768 561.664 768 544S782.336 512 800 512L832 512l0-320-32 0c-17.664 0-32-14.336-32-32s14.336-32 32-32l64 0c17.664 0 32 14.336 32 32l0 384C896 561.664 881.664 576 864 576z"  horiz-adv-x="1024" />

    
    <glyph glyph-name="iconfontadd" unicode="&#58947;" d="M818.992 458.992M657.904 202.992M658.096 170.992M1008 411.552 539.552 411.552 539.552 880 484.448 880 484.448 411.552 16 411.552 16 356.448 484.448 356.448 484.448-112 539.552-112 539.552 356.448 1008 356.448Z"  horiz-adv-x="1024" />

    
    <glyph glyph-name="guanli" unicode="&#58882;" d="M0 896l455.111111 0 0-455.111111-455.111111 0 0 455.111111ZM568.888889 896l455.111111 0 0-455.111111-455.111111 0 0 455.111111ZM0 327.111111l455.111111 0 0-455.111111-455.111111 0 0 455.111111ZM568.888889 327.111111l455.111111 0 0-455.111111-455.111111 0 0 455.111111Z"  horiz-adv-x="1024" />

    
    <glyph glyph-name="icon17" unicode="&#59220;" d="M411.946748 614.113935 411.946748 727.846232c0 0 0.317225 5.964852-11.533684 8.589632-9.942443 2.226714-19.485797-4.53427-19.485797-4.53427-4.212952-2.942005-200.50457-142.126998-200.50457-142.126998s-18.768459-9.622148-18.768459-28.551266c0-18.453281 13.282514-26.00835 13.282514-26.00835l201.695698-138.467655c0 0 12.80463-4.614088 23.701818-2.306532 11.770068 2.464121 11.612479 11.054777 11.612479 11.054777L411.946748 511.912251l196.209754 0c0 0 154.692175-20.757766 154.692175-78.101799 0 0-2.584871 180.303482-159.702282 180.303482L411.946748 614.113935zM612.60993 155.682991 612.60993 41.94967c0 0 2.148943-6.919597 14.713097-8.589632 8.429996-1.11438 13.680581 3.180436 15.509229 4.454452 4.216022 3.021823 200.743 142.364405 200.743 142.364405s18.770506 9.543354 18.770506 28.472472c0 18.531052-13.282514 26.086122-13.282514 26.086122l-201.935152 138.549519c0 0-8.350179 5.089925-19.805068 2.068102-14.0766-3.65832-14.713097-10.816347-14.713097-10.816347l0-106.495476L415.445432 258.043287c0 0-154.850787 20.75879-154.850787 78.180594 0 0 2.543939-180.540889 159.783123-180.540889L612.60993 155.682991z"  horiz-adv-x="1024" />

    
    <glyph glyph-name="ziyuanguanli" unicode="&#58883;" d="M136.716362-122.461153C74.910416-122.461153 16.976312-75.028168 4.752399-14.511304L3.524435 302.376627C-2.283327 332.367063 6.068745 364.462173 25.810144 388.636852 45.437667 412.698361 73.34238 425.933133 104.35923 425.933133L987.145316 425.933133C1019.64258 425.933133 1049.179017 412.468874 1068.23715 389.018806 1087.446603 365.378547 1094.432144 334.661927 1087.978552 302.452074L1092.957053-14.512877C1080.884455-75.028168 1022.95035-122.461153 961.069524-122.461153L136.716362-122.461153ZM87.228836-0.666455C92.050697-24.76569 118.131809-45.881594 142.960265-45.881594L961.06797-45.881594C986.351934-45.881594 1011.863658-25.22466 1016.724517-0.743474L1017.989919 316.221474C1019.205139 322.342163 1019.584206 331.064224 1014.269396 337.643887 1010.016924 342.922078 1002.575872 345.829956 993.389225 345.829956L110.603134 345.829956C103.048208 345.829956 96.822374 342.92208 92.076951 337.107896 87.102209 330.987205 84.748217 322.724116 86.000872 315.991987L87.228836-0.666455ZM300.899642 502.514262C279.411078 502.514262 262.023671 520.033832 262.023671 541.685732 262.023671 563.337632 279.411078 580.857202 300.899642 580.857202L767.406617 580.857202C788.895182 580.857202 806.28259 563.337632 806.28259 541.685732 806.28259 520.033832 788.895182 502.514262 767.406617 502.514262L300.899642 502.514262ZM353.675976 659.198569C332.187411 659.198569 314.800004 676.718139 314.800004 698.370039 314.800004 720.021939 332.187411 737.541509 353.675976 737.541509L720.875745 737.541509C742.36431 737.541509 759.751717 720.021939 759.751717 698.370039 759.751717 676.718139 742.362749 659.198569 720.875745 659.198569L353.675976 659.198569ZM66.826982 417.109756 133.096967 784.630265C144.258541 846.102798 204.242444 894.225816 269.655036 894.225816L811.369641 894.225816C876.819675 894.225816 936.803578 846.142095 947.965153 784.707284L990.864278 547.768698C994.661245 526.461027 980.69017 506.072875 959.582233 502.209328 938.778499 498.154018 918.200957 512.346033 914.329113 533.691426L871.429982 770.630014C867.102633 794.729247 839.0076 815.882876 811.369641 815.882876L269.655036 815.882876C242.054516 815.882876 213.961046 794.729245 209.594695 770.630014L148.016006 424.134146C143.359466 424.134146 123.31901 424.064157 112.262958 424.134146 93.815718 424.250924 80.609756 423.050305 66.826982 417.109756ZM307.646305 38.81118C283.956486 38.81118 283.972912 59.850608 283.972912 59.850608L283.972912 170.673783C283.972912 170.673783 280.035712 194.908741 307.646305 194.908741L788.42599 194.908741C816.036583 194.908741 812.105285 170.673783 812.105285 170.673783L812.105285 59.850608C812.105285 59.850608 812.123305 38.81118 788.42599 38.81118L307.646305 38.81118Z"  horiz-adv-x="1099" />

    
    <glyph glyph-name="sjkcx" unicode="&#59841;" d="M816.662 615.426c-0.341-1.39-0.707-2.779-1.146-4.169-0.122-0.39-0.244-0.805-0.39-1.219-0.317-1-0.634-1.999-0.975-2.999-0.146-0.414-0.317-0.829-0.463-1.268-0.122-0.341-0.293-0.731-0.439-1.073-0.366-0.951-0.683-1.902-1.097-2.828-0.146-0.317-0.293-0.634-0.439-1-0.293-0.683-0.61-1.39-0.926-2.072-0.146-0.293-0.268-0.585-0.414-0.902-0.268-0.536-0.512-1.097-0.78-1.634-0.122-0.219-0.244-0.488-0.366-0.707-0.293-0.561-0.561-1.146-0.853-1.707-0.293-0.536-0.561-1.097-0.853-1.609-0.146-0.244-0.293-0.512-0.439-0.756-0.512-0.926-1-1.829-1.536-2.706-0.366-0.658-0.756-1.292-1.146-1.926-0.39-0.61-0.756-1.243-1.146-1.853-0.488-0.707-0.926-1.438-1.438-2.121-0.341-0.512-0.658-1.024-1.024-1.512-0.878-1.341-1.829-2.633-2.779-3.925 0-0.024-0.049-0.024-0.049-0.049-0.975-1.292-1.95-2.584-2.974-3.877-0.098-0.098-0.195-0.244-0.293-0.341-0.195-0.244-0.39-0.463-0.561-0.707-0.683-0.829-1.39-1.682-2.097-2.511-0.049-0.073-0.122-0.122-0.171-0.195-0.122-0.146-0.293-0.341-0.414-0.488-1.585-1.829-3.243-3.657-4.925-5.461-0.024 0-0.024-0.024-0.024-0.024-3.316-3.486-6.827-6.924-10.606-10.289-0.024 0-0.024-0.024-0.049-0.024-1.78-1.609-3.633-3.194-5.534-4.779l-0.512-0.414c-3.95-3.267-8.119-6.51-12.483-9.655 21.479-4.657 42.154-11.532 61.757-20.358v97.206l-2.414-0.049zM409.601 896c-226.205 0-409.597-82.529-409.597-184.319 0-1.585 0.049-3.17 0.122-4.754 0.098-1.341 0.219-2.682 0.341-3.998v0c8.68-83.577 141.067-152.624 316.633-170.86 18.578-1.926 37.644-3.267 57.1-4.023 11.678-0.463 23.479-0.683 35.425-0.683 3.974 0 7.948 0.024 11.873 0.073 27.648 0.366 54.589 1.926 80.627 4.632 32.402 3.365 63.341 8.485 92.306 15.092 2.487 0.561 4.925 1.146 7.363 1.731 18.871 4.51 36.864 9.655 53.833 15.433 3.316 1.097 6.558 2.243 9.752 3.413 6.924 2.487 13.678 5.071 20.212 7.753 4.681 1.926 9.24 3.877 13.702 5.9 4.437 1.999 8.728 4.047 12.971 6.12 1.926 0.951 3.803 1.902 5.681 2.877 6.241 3.194 12.288 6.51 18.042 9.923 0.049 0.049 0.122 0.098 0.195 0.122 8.289 4.949 16.043 10.045 23.235 15.336 1.731 1.292 3.462 2.584 5.12 3.901 6.656 5.193 12.776 10.557 18.359 16.067 1.414 1.414 2.755 2.828 4.096 4.242 5.217 5.559 9.874 11.24 13.897 17.067 1.902 2.828 3.681 5.656 5.339 8.533 1.804 3.145 3.462 6.339 4.876 9.557 0.805 1.804 1.536 3.608 2.243 5.413 2.755 7.363 4.584 14.824 5.388 22.43 0.171 1.341 0.268 2.658 0.341 3.998 0.098 1.536 0.122 3.121 0.122 4.705 0 101.79-183.368 184.319-409.597 184.319M458.484 16.707c-3.706-0.195-7.412-0.414-11.142-0.536-1-0.049-1.975-0.098-2.974-0.122-5.193-0.195-10.386-0.366-15.652-0.488-0.853 0-1.731-0.024-2.584-0.024-5.486-0.098-11.020-0.171-16.555-0.171-5.559 0-11.069 0.073-16.555 0.171-0.878 0-1.731 0.024-2.609 0.049-5.217 0.098-10.435 0.268-15.628 0.463-1 0.049-1.975 0.073-2.95 0.122-5.242 0.219-10.459 0.463-15.628 0.756-0.634 0.049-1.268 0.098-1.902 0.122-5.144 0.317-10.289 0.658-15.384 1.073-0.39 0.024-0.78 0.073-1.17 0.073-5.193 0.439-10.362 0.902-15.506 1.39-0.853 0.098-1.682 0.195-2.536 0.268-5.047 0.512-10.021 1.048-14.97 1.658-0.78 0.073-1.56 0.171-2.341 0.268-5.12 0.61-10.191 1.292-15.238 1.999-0.146 0.024-0.317 0.024-0.488 0.049-5.047 0.731-10.094 1.512-15.092 2.316-0.488 0.073-0.975 0.146-1.463 0.219-4.901 0.805-9.728 1.634-14.531 2.536-0.707 0.122-1.414 0.268-2.121 0.414-4.803 0.853-9.557 1.78-14.238 2.755-0.488 0.122-0.926 0.219-1.39 0.317-9.777 2.024-19.358 4.242-28.721 6.607-0.463 0.122-0.926 0.244-1.365 0.341-4.559 1.17-9.021 2.365-13.458 3.584-0.512 0.146-1.024 0.293-1.536 0.414-4.486 1.292-8.948 2.584-13.336 3.925-0.122 0.049-0.219 0.073-0.341 0.122-4.584 1.414-9.070 2.828-13.507 4.315-0.049 0.024-0.098 0.049-0.146 0.049-4.315 1.438-8.509 2.926-12.678 4.437-0.219 0.098-0.488 0.171-0.707 0.244h0.024c-81.602 29.647-137.361 73.24-149.527 122.782h-2.536v-122.879c0-82.675 120.953-152.624 287.596-176.005v0c0.024 0 0.024 0 0.049 0 4.291-0.585 8.631-1.17 12.971-1.682 1.048-0.146 2.097-0.293 3.145-0.414 4.315-0.512 8.631-1 12.995-1.463 0.073-0.024 0.122-0.024 0.171-0.024 4.437-0.488 8.899-0.878 13.361-1.292 1.073-0.098 2.17-0.195 3.267-0.268 4.462-0.39 8.899-0.731 13.385-1.073h0.146c4.535-0.317 9.094-0.561 13.678-0.805 1.122-0.073 2.267-0.146 3.389-0.195 4.559-0.219 9.143-0.439 13.751-0.561 0.024-0.024 0.073-0.024 0.098-0.024 4.608-0.146 9.289-0.268 13.946-0.366 1.17-0.024 2.341-0.024 3.535-0.073 4.705-0.024 9.387-0.073 14.116-0.073 4.705 0 9.435 0.049 14.092 0.098 1.17 0.049 2.341 0.049 3.511 0.073 4.657 0.098 9.313 0.219 13.921 0.366 0.049 0 0.073 0 0.098 0.024 4.608 0.146 9.192 0.366 13.751 0.561 1.122 0.049 2.267 0.122 3.389 0.195 4.584 0.244 9.143 0.512 13.678 0.805h0.146c4.51 0.341 8.972 0.683 13.385 1.073 1.097 0.073 2.17 0.171 3.267 0.268 4.462 0.414 8.923 0.805 13.361 1.292 0.049 0 0.098 0 0.171 0.024 4.364 0.463 8.68 0.951 12.995 1.463 1.048 0.122 2.097 0.268 3.17 0.414 4.34 0.512 8.68 1.097 12.995 1.682 0 0 0.024 0 0.049 0 52.76 7.412 100.936 19.48 142.14 35.133-84.894 4.364-161.035 42.496-215.234 101.229v0zM0.223 268.731c0.073-0.975 0.146-1.95 0.244-2.926 0.073-0.512 0.122-1.048 0.195-1.56 0.098-0.951 0.219-1.853 0.366-2.779 0.073-0.512 0.171-1.048 0.244-1.536 0.171-1 0.39-1.999 0.585-2.999 0.073-0.414 0.171-0.805 0.244-1.243 0.317-1.414 0.658-2.804 1.048-4.218 0.049-0.122 0.098-0.268 0.122-0.414 0.341-1.243 0.731-2.511 1.146-3.755 0.122-0.463 0.293-0.902 0.463-1.341 0.317-0.951 0.658-1.877 1.024-2.853 0.195-0.488 0.366-0.951 0.561-1.463 0.39-0.926 0.756-1.829 1.146-2.731 0.195-0.488 0.414-0.951 0.634-1.438 0.439-1 0.926-2.024 1.414-2.999 0.171-0.366 0.341-0.731 0.512-1.097 0.707-1.341 1.414-2.682 2.146-4.047 0.122-0.195 0.244-0.414 0.341-0.585 0.658-1.122 1.317-2.267 1.999-3.413 0.268-0.439 0.536-0.829 0.805-1.268 0.561-0.902 1.146-1.829 1.78-2.755 0.293-0.439 0.61-0.878 0.926-1.341 0.61-0.902 1.243-1.804 1.902-2.706 0.293-0.439 0.585-0.829 0.902-1.268 0.78-1.048 1.585-2.097 2.414-3.121 0.195-0.268 0.39-0.512 0.561-0.756 1.048-1.292 2.121-2.609 3.243-3.901 0.171-0.195 0.341-0.39 0.512-0.561 0.926-1.097 1.877-2.17 2.853-3.243 0.341-0.366 0.683-0.731 1.024-1.097 0.853-0.926 1.707-1.829 2.584-2.731 0.39-0.39 0.78-0.756 1.146-1.17 0.902-0.902 1.853-1.804 2.779-2.731 0.341-0.317 0.683-0.634 1.024-1 1.195-1.122 2.414-2.243 3.657-3.389 0.098-0.098 0.171-0.195 0.293-0.268 1.414-1.268 2.828-2.536 4.291-3.755 0.195-0.171 0.39-0.317 0.585-0.488 1.243-1.048 2.487-2.097 3.779-3.121 0.366-0.293 0.756-0.585 1.122-0.902 1.146-0.902 2.292-1.804 3.462-2.682 0.414-0.341 0.805-0.61 1.219-0.926 1.243-0.951 2.511-1.877 3.779-2.804 0.317-0.219 0.634-0.463 0.975-0.683 3.291-2.389 6.705-4.705 10.24-6.997 0.146-0.098 0.317-0.195 0.488-0.293 1.56-1.048 3.17-2.048 4.779-3.048 0.366-0.244 0.731-0.463 1.097-0.683 1.487-0.902 2.974-1.78 4.462-2.682 0.39-0.219 0.756-0.439 1.146-0.658 1.634-0.951 3.291-1.902 4.974-2.853 0.219-0.122 0.439-0.244 0.658-0.366 3.925-2.194 7.997-4.389 12.166-6.51 0.073-0.049 0.171-0.098 0.293-0.146 1.926-0.975 3.877-1.926 5.851-2.926 0.317-0.146 0.61-0.293 0.926-0.463 1.829-0.878 3.681-1.755 5.559-2.609 0.293-0.146 0.561-0.293 0.878-0.439 8.753-4.047 17.895-7.899 27.428-11.581 0.195-0.073 0.439-0.171 0.634-0.268 2.243-0.829 4.51-1.682 6.802-2.536 0.122-0.073 0.268-0.122 0.414-0.171 9.874-3.584 20.139-7.022 30.744-10.216l0.244-0.073c32.231-9.728 67.681-17.432 105.496-22.747v0c0 0 0.024 0 0.049 0 1.268-0.171 2.536-0.341 3.779-0.512 2.487-0.341 4.974-0.658 7.461-0.975 0.561-0.073 1.146-0.146 1.731-0.219 1.048-0.146 2.097-0.293 3.145-0.39 0.317-0.049 0.585-0.073 0.878-0.122 3.145-0.39 6.315-0.731 9.484-1.048 0.902-0.122 1.78-0.219 2.633-0.317 0.073-0.024 0.122-0.024 0.195-0.024 1.341-0.146 2.706-0.244 4.047-0.39 2.414-0.244 4.827-0.488 7.265-0.683 0.683-0.073 1.365-0.146 2.048-0.219 1.073-0.098 2.17-0.171 3.267-0.268 0.268-0.049 0.512-0.049 0.78-0.073 3.657-0.317 7.339-0.585 11.020-0.853 0.512-0.024 1.073-0.073 1.609-0.122h0.146c1.365-0.122 2.706-0.171 4.072-0.268 2.487-0.146 4.974-0.317 7.485-0.463 0.731-0.024 1.414-0.073 2.146-0.122 1.122-0.049 2.267-0.122 3.389-0.195 0.171 0 0.366 0 0.536 0 3.73-0.195 7.509-0.366 11.288-0.488 0.634-0.049 1.292-0.073 1.926-0.098 0.049-0.024 0.073-0.024 0.098-0.024 1.317-0.024 2.633-0.049 3.95-0.098 2.487-0.073 4.974-0.122 7.461-0.195 0.853 0 1.682 0.439 2.536 0.414 1.146-0.049 2.341 0.39 3.511 0.39h0.171c0.073 0-0.439-0.488-0.439-0.488v-0.219c5.291-0.049 8.704-0.195 12.483-0.219-21.065 42.252-32.938 90.014-32.938 140.36 0 1.268 0.024 1.853 0.024 3.901h-0.024c-1 0-1.975-0.098-2.95-0.073-5.242 0.219-10.435 0.39-15.628 0.683-0.634 0.024-1.268 0.024-1.902 0.098-5.144 0.293-10.264 0.61-15.384 1.024-0.366 0.024-0.78 0.049-1.146 0.073-5.217 0.439-10.362 0.878-15.506 1.39-0.853 0.098-1.707 0.171-2.536 0.244-5.022 0.512-10.021 1.048-14.945 1.658-0.78 0.073-1.585 0.171-2.365 0.268-5.096 0.61-10.191 1.292-15.238 1.975-0.146 0.024-0.317 0.049-0.488 0.073-5.071 0.731-10.094 1.512-15.092 2.292-0.488 0.098-0.975 0.171-1.463 0.244-4.901 0.78-9.752 1.634-14.555 2.536-0.707 0.122-1.414 0.244-2.097 0.39-4.803 0.902-9.557 1.804-14.263 2.804-0.463 0.073-0.926 0.171-1.39 0.293-9.777 2.024-19.358 4.242-28.721 6.607-0.463 0.122-0.926 0.219-1.365 0.366-4.535 1.146-9.021 2.365-13.434 3.56-0.512 0.146-1.024 0.317-1.536 0.439-4.486 1.292-8.948 2.56-13.336 3.901-0.098 0.049-0.219 0.073-0.341 0.122-4.584 1.414-9.070 2.828-13.507 4.315-0.049 0.024-0.098 0.049-0.146 0.049-4.291 1.463-8.509 2.414-12.678 3.901-0.049 0.049-0.098 0-0.171 0v0c-0.171-0.073-0.366-0.244-0.512-0.244v0c-4.876 1.829-9.655 3.706-14.336 5.608-0.219 0.098-0.463 0.171-0.683 0.268-4.632 1.926-9.192 3.877-13.653 5.851-0.219 0.122-0.512 0.219-0.731 0.341-4.462 1.999-8.85 4.072-13.117 6.144-0.195 0.098-0.414 0.195-0.61 0.317-4.437 2.194-8.777 4.437-12.971 6.68-0.024 0-0.049 0-0.049 0-3.95 2.17-7.802 4.34-11.556 6.558-0.244 0.146-0.512 0.293-0.756 0.439-7.973 4.73-15.433 9.63-22.382 14.653 0 0 0 0-0.024 0.024-27.599 19.992-46.933 42.398-55.783 66.389-1.195 3.194-2.194 6.412-2.999 9.63l-2.414 0v-121.88c0-1.438 0.049-2.853 0.122-4.291 0.024-0.414 0.073-0.902 0.098-1.365v0zM0.223 486.866c0.073-0.975 0.146-1.975 0.244-2.974 0.073-0.512 0.122-1.024 0.171-1.536 0.098-0.951 0.244-1.902 0.39-2.804 0.073-0.512 0.171-1.024 0.244-1.512 0.171-1.024 0.39-2.072 0.61-3.121 0.073-0.366 0.146-0.731 0.219-1.097 0.634-2.877 1.438-5.729 2.365-8.558 0.073-0.268 0.171-0.536 0.268-0.829 0.39-1.17 0.805-2.341 1.268-3.486 0.122-0.293 0.219-0.561 0.341-0.853 0.512-1.219 1-2.462 1.536-3.681 0.049-0.146 0.122-0.293 0.219-0.463 29.598-66.243 138.117-119.636 279.501-139.482v0h0.049c4.291-0.585 8.631-1.17 12.971-1.682 1.048-0.146 2.097-0.268 3.145-0.39 4.315-0.512 8.631-1.024 12.995-1.487 0.073 0 0.122-0.024 0.195-0.024 4.413-0.463 8.875-0.878 13.361-1.268 1.097-0.122 2.194-0.195 3.267-0.293 4.437-0.39 8.899-0.731 13.385-1.048 0.049-0.024 0.098-0.024 0.146-0.024 4.535-0.317 9.094-0.561 13.678-0.805 1.122-0.073 2.267-0.122 3.389-0.171 0.049-0.024 0.122-0.024 0.195-0.024 6.68-0.341 13.434-0.585 20.212-0.805 14.238 55.686 43.325 105.496 82.797 144.895-0.853-0.049-1.682-0.122-2.536-0.146-0.561-0.049-1.122-0.098-1.707-0.122h-0.171c-1.731-0.098-3.462-0.171-5.193-0.268-3.462-0.195-6.924-0.366-10.386-0.512-0.878-0.024-1.755-0.073-2.609-0.098-0.122 0-0.244 0-0.366-0.024h-0.366c-5.071-0.195-10.167-0.341-15.287-0.463-0.853-0.024-1.731-0.024-2.584-0.049-5.51-0.098-11.020-0.171-16.579-0.171s-11.069 0.073-16.555 0.171c-0.878 0-1.731 0.024-2.609 0.049-5.217 0.098-10.435 0.244-15.628 0.463-0.244 0-0.512 0.024-0.756 0.024-0.731 0.024-1.487 0.073-2.194 0.098-3.925 0.146-7.802 0.366-11.727 0.561-1.292 0.073-2.584 0.122-3.901 0.195-0.122 0-0.244 0-0.39 0.024-0.512 0.024-1.024 0.049-1.512 0.098-1.731 0.073-3.413 0.219-5.144 0.341-3.413 0.219-6.827 0.439-10.216 0.707-0.293 0.024-0.585 0.024-0.878 0.049-0.098 0.024-0.195 0.024-0.317 0.024-2.999 0.244-5.949 0.512-8.899 0.805-2.219 0.195-4.413 0.39-6.607 0.61-0.293 0.024-0.585 0.049-0.878 0.073-0.561 0.049-1.122 0.122-1.658 0.171-5.022 0.512-10.021 1.048-14.945 1.609-0.39 0.049-0.756 0.098-1.122 0.146-0.414 0.049-0.829 0.098-1.219 0.146-5.096 0.61-10.191 1.268-15.238 1.999-0.049 0-0.122 0-0.171 0.024-0.098 0-0.195 0.024-0.293 0.024-2.365 0.341-4.705 0.707-7.046 1.073-1.219 0.195-2.438 0.366-3.657 0.536-1.463 0.219-2.95 0.439-4.413 0.683-0.488 0.073-0.975 0.146-1.463 0.219-1.487 0.244-2.95 0.512-4.437 0.756-3.365 0.561-6.753 1.146-10.118 1.755-0.366 0.049-0.707 0.146-1.048 0.195-0.341 0.073-0.707 0.146-1.048 0.195-4.803 0.878-9.557 1.804-14.238 2.779-0.463 0.098-0.926 0.195-1.39 0.293-4.876 1.024-9.728 2.072-14.531 3.17-4.779 1.097-9.509 2.243-14.214 3.438-0.439 0.098-0.902 0.219-1.341 0.341-4.51 1.317-8.997 2.511-13.409 3.755-0.512 0.122-1.024 0.268-1.536 0.414-4.51 1.268-8.948 2.536-13.336 3.925-0.098 0.024-0.219 0.049-0.341 0.098-4.559 1.414-9.070 2.828-13.483 4.315-0.049 0-0.098 0.024-0.171 0.049-4.291 1.438-8.509 2.901-12.654 4.413-0.244 0.073-0.488 0.146-0.731 0.244h0.024c-2.95 1.073-5.851 2.17-8.728 3.267-0.878 0.341-1.755 0.683-2.633 1.024-2.024 0.805-4.047 1.609-6.046 2.438-0.926 0.366-1.853 0.756-2.804 1.146-2.072 0.853-4.12 1.731-6.168 2.609-0.707 0.317-1.438 0.634-2.121 0.926-2.755 1.195-5.486 2.438-8.143 3.681-0.195 0.073-0.39 0.171-0.585 0.268-2.462 1.146-4.901 2.316-7.29 3.486-0.658 0.317-1.317 0.683-1.999 1-1.975 0.975-3.925 1.975-5.851 2.974-0.658 0.317-1.292 0.683-1.95 1.024-2.219 1.17-4.389 2.341-6.558 3.535-0.268 0.146-0.512 0.293-0.78 0.439-2.536 1.414-5.022 2.853-7.485 4.291-0.049 0.024-0.122 0.098-0.195 0.122-2.267 1.341-4.51 2.706-6.705 4.096-0.414 0.268-0.805 0.512-1.219 0.756-1.95 1.243-3.877 2.511-5.778 3.779-0.317 0.219-0.634 0.414-0.951 0.634-6.68 4.535-12.946 9.192-18.749 13.995-0.195 0.171-0.39 0.341-0.585 0.512-1.804 1.512-3.584 3.023-5.315 4.584-0.073 0.073-0.171 0.146-0.268 0.219-3.73 3.365-7.241 6.753-10.532 10.216-1.78 1.877-3.511 3.779-5.169 5.705-0.073 0.098-0.171 0.195-0.268 0.293-0.073 0.073-0.146 0.146-0.219 0.244-0.731 0.853-1.438 1.707-2.146 2.56-0.073 0.073-0.122 0.146-0.171 0.219-0.146 0.366-0.366 0.61-0.561 0.853-1.024 1.292-2.024 2.584-3.023 3.901 0 0 0 0.024-0.024 0.049-0.975 1.317-1.902 2.609-2.804 3.925-0.366 0.488-0.683 0.975-1.024 1.463-0.488 0.731-0.951 1.463-1.414 2.146-0.39 0.61-0.756 1.219-1.146 1.829-0.39 0.658-0.805 1.317-1.195 1.975-0.536 0.926-1.024 1.829-1.536 2.755-0.122 0.244-0.268 0.488-0.414 0.731-0.293 0.536-0.585 1.122-0.878 1.658-0.098 0.244-0.219 0.439-0.341 0.658-0.293 0.585-0.585 1.146-0.878 1.731-0.268 0.536-0.512 1.073-0.78 1.609-0.098 0.171-0.171 0.366-0.244 0.536-0.39 0.78-0.731 1.585-1.073 2.365-0.146 0.366-0.317 0.731-0.463 1.073-0.39 0.926-0.756 1.877-1.097 2.828-0.122 0.366-0.293 0.731-0.414 1.097-0.146 0.414-0.317 0.853-0.439 1.268-0.341 1-0.683 1.975-1 2.999-0.146 0.414-0.268 0.853-0.39 1.243-0.414 1.365-0.78 2.731-1.122 4.12l-2.487 0v-122.879c0-1.438 0.049-2.877 0.122-4.291 0.024-0.463 0.073-0.902 0.098-1.365v0zM903.75 58.155v0zM833.656-3.553v0zM839.19-0.042v0zM844.749 3.664v0zM850.259 7.516v0zM855.647 11.514v0zM860.962 15.634v0zM866.131 19.852v0zM871.226 24.241v0zM876.224 28.727v0zM881.125 33.335v0zM885.879 38.089v0zM899.484 52.986v0zM895.095 47.939v0zM890.585 43.014v0zM1020.29-48.999l-112.371 112.371c0 0-0.024 0-0.024-0.024 35.547 46.275 56.685 104.179 56.685 167.057 0 151.575-122.855 274.43-274.43 274.43-151.551 0-274.406-122.855-274.406-274.43 0-151.575 122.879-274.43 274.406-274.43 50.151 0 97.157 13.458 137.629 36.961l117.247-117.223c5.681-5.705 15.945-4.73 22.869 2.194l50.224 50.224c6.875 6.924 7.875 17.164 2.17 22.869zM690.15 19.925c-116.248 0-210.479 94.232-210.479 210.479 0 116.272 94.232 210.504 210.479 210.504s210.504-94.232 210.504-210.504c-0.024-116.223-94.28-210.479-210.504-210.479z"  horiz-adv-x="1024" />

    
    <glyph glyph-name="export" unicode="&#58914;" d="M838.016 329.984q-15.008 0-25.504-10.496t-10.496-25.504v-204q0-8-5.504-12.992t-12.512-4.992H216.992q-8 0-13.504 4.992t-5.504 12.992V676.992q0 8 5.504 13.504t13.504 5.504h254.016q15.008 0 25.504 10.496t10.496 24.992-10.496 24.992-25.504 10.496H216.992q-36.992 0-63.488-26.016t-26.496-64v-587.008q0-36.992 26.496-63.488t63.488-26.496H784q36.992 0 63.488 26.496t26.496 63.488v204q0 15.008-10.496 25.504t-25.504 10.496zM464 540q-44.992-68-54.016-136-2.016-15.008 7.008-26.496t23.008-13.504q2.016-0.992 4.992-0.992 12.992 0 23.488 8.992t12.512 22.016q0 4.992 3.008 17.504t14.016 40 27.008 50.496q70.016 103.008 206.016 104l3.008-0.992q15.008 0 25.504 10.496t10.496 25.504V683.04l100.992-95.008-100.992-84v34.016q0 15.008-10.496 25.504t-25.504 10.496-25.504-10.496-10.496-25.504v-111.008q0-22.016 20.992-32 7.008-3.008 15.008-3.008 12.992 0 23.008 8l190.016 158.016q12 11.008 12.992 26.016 0 16.992-11.008 28L759.04 793.056q-16.992 16-39.008 6.496t-22.016-32.512v-91.008q-152-12.992-234.016-136z"  horiz-adv-x="1024" />

    
    <glyph glyph-name="opacity" unicode="&#59433;" d="M753.493333 554.666667L512 795.733333 270.506667 554.666667A342.186667 342.186667 0 0 1 170.666667 314.026667c0-85.333333 33.28-175.36 99.84-241.92a340.906667 340.906667 0 0 1 482.986666 0c66.56 66.56 99.84 156.586667 99.84 241.92S820.053333 488.106667 753.493333 554.666667M256 298.666667c0 85.333333 26.453333 139.52 75.093333 187.733333L512 671.146667l180.906667-186.88C741.546667 436.48 768 384 768 298.666667H256z"  horiz-adv-x="1024" />

    
    <glyph glyph-name="eye-close" unicode="&#59064;" d="M811.913 60.936c-7.531 0-15.072 2.803-20.923 8.443L188.337 650.184c-11.992 11.557-12.345 30.648-0.787 42.641 11.558 11.992 30.648 12.345 42.641 0.787l602.653-580.805c11.993-11.557 12.345-30.648 0.787-42.641-5.919-6.142-13.813-9.23-21.718-9.23zM631.56 345.794a128.545 128.545 0 0 1 5.562 35.71c1.003 70.944-55.696 129.268-126.64 130.271-15.362 0.217-30.129-2.275-43.854-7.028L631.56 345.794zM385.792 420.904a128.512 128.512 0 0 1-5.58-35.769c-1.003-70.944 55.696-129.268 126.64-130.271 15.384-0.217 30.172 2.282 43.913 7.048L385.792 420.904zM415.791 553.741c33.197 6.349 67.285 9.389 101.842 8.9 144.507-2.042 281.152-66.525 374.898-176.915 0.349-0.41 0.333-1.055-0.036-1.5-46.167-55.621-102.603-99.719-165.401-130.502l48.569-46.809c63.14 34.328 120.106 81.048 166.077 136.435 20.261 24.409 20.081 59.654-0.427 83.803-51.714 60.895-114.262 109.28-185.907 143.811-74.21 35.768-153.904 54.498-236.87 55.67-54.01 0.773-106.762-5.919-157.699-19.933l54.954-52.96zM602.555 211.998a503.631 503.631 0 0 0-95.648-9.135c-2.392 0-4.811 0.017-7.207 0.051-144.506 2.041-281.151 66.524-374.898 176.915-0.349 0.411-0.333 1.057 0.036 1.502 46.36 55.854 103.085 100.084 166.207 130.884l-48.608 46.845C178.99 524.695 121.75 477.817 75.592 422.206c-20.26-24.41-20.08-59.654 0.427-83.804 51.714-60.896 114.262-109.28 185.907-143.812 74.21-35.769 153.905-54.498 236.87-55.671 2.775-0.039 5.533-0.059 8.301-0.059 51.441 0 101.711 6.797 150.325 20.26l-54.867 52.878z"  horiz-adv-x="1024" />

    
    <glyph glyph-name="icon" unicode="&#58985;" d="M940.457 403.844c-4.959 26.898-16.355 55.843-33.907 86.131 2.103 29.513-2.973 55.438-7.803 72.442-14.346 50.506-45.505 94.693-92.613 131.332l-0.895 0.697-2.129 1.355c-15.715 10.041-57.461 36.711-121.545 36.711-51.244 0-104.487-17.159-158.513-51.047-16.508 11.789-45.777 26.009-90.916 26.009-42.898 0-91.497-13.095-144.474-38.925-20.41-5.651-147.991-44.807-192.222-150.983-27.157-65.184-17.054-140.56 30.004-224.165-7.755-23.5-24.894-78.963-2.844-120.057 17.353-32.342 82.466-137.858 191.788-137.858 8.402 0 16.967 0.645 25.454 1.919l1.236 0.219c2.88 0.588 5.593 1.119 8.179 1.628 47.872 9.407 60.864 14.512 199.198 129.068 52.803-26.985 97.93-60.722 136.501-100.814-112.976 88.644-89.115 76.267-53.81 76.267 4.22 0 8.561 0.18 12.907 0.535l1.437 0.117 4.492 0.918c84.089 17.17 174.862 39.948 210.549 78.697 3.749 4.069 8.509 8.705 13.546 13.613 21.277 20.726 50.415 49.108 63.095 91.351 7.026 23.392 8.129 48.572 3.284 74.839ZM862.107 470.907c4.55-7.562 8.55-14.823 12.076-21.817l-138.311-79.853c-7.323 5.81-16.084 12.804-24.093 19.322l148.444 85.703c1.458-3.143 3.481-5.795 5.959-7.931ZM858.748 494.093l-161.678-93.347c-3.326 2.838-5.947 5.169-7.475 6.695-4.051 4.051-2.991 12.563 0.48 22.5l167.395 96.645c1.803-12.889 1.831-24.006 1.278-32.494ZM853.806 545.153l-150.194-86.716c2.659 4.701 5.312 9.11 7.687 12.909 3.447 9.998 3.533 18.506 1.733 25.761l131.165 75.728c7.955-17.463 13.227-37.751 14.697-59.088ZM836.131 588.865l-131.017-75.644c-6.475 8.614-14.602 14.411-17.932 18.416-0.816 0.979-1.817 1.897-2.964 2.751l135.929 78.48c6.244-8.071 11.523-16.103 15.982-24.005ZM808.417 626.78l-145.711-84.126c-12.63 2.766-24.958 3.454-24.958 3.454l-71.102-58.913-119.678-69.097 1.325 33.996 338.572 195.474c8.018-6.87 15.174-13.82 21.553-20.788ZM377.157 292.92499999999995c0 7.954 24.996 5.681 40.906 10.22 15.906 4.543 24.778 9.185 24.778 9.185l1.148 29.446 98.962 57.137 17.428-23.17-187.114-108.029c2.461 10.206 3.892 20.75 3.892 25.211ZM357.838 499.719c-1.287-0.774-6.143-0.434-12.875 0.547l31.434 18.148c-9.514-9.471-16.452-17.436-18.558-18.698ZM444.813 362.937l1.327 33.998 68.538 39.568 17.425-23.169-87.291-50.397ZM771.187 659.1990000000001l-322.069-185.946 1.327 33.998 289.401 167.085c13.572-4.944 24.098-10.74 31.342-15.138ZM681.567 684.545c12.477 0 23.903-1.317 34.223-3.417l-264.521-152.72 0.658 16.852s-12.775 5.107-15.307 7.923l225.775 130.352c5.812 0.642 12.554 1.009 19.377 1.009ZM534.538 631.639c20.644 14.143 40.997 25.473 60.975 33.965l-72.471-41.84 11.495 7.875ZM302.018 622.739l2.45 0.62 2.265 1.117c29.811 14.697 57.636 24.805 83.184 30.259l-242.593-140.062c44.42 78.937 153.561 107.775 154.695 108.066ZM135.36 487.084l298.603 172.4c18.809-0.214 33.261-3.667 43.929-7.87l-349.027-201.511c0.624 12.837 2.787 25.17 6.495 36.985ZM129.13 429.572l367.199 212.001c3.474-2.591 5.428-4.615 6.025-5.269l12.622-17.193-197.114-113.803c-20.316 4.247-40.692 9.187-40.692 9.187l-28.405-24.998v-24.083l-114.899-66.338c-2.417 10.433-4.001 20.604-4.732 30.502ZM292.281 328.789l-128.067-73.939c2.636 11.018 5.773 20.485 7.575 25.915 1.634 4.927 3.09 9.328 3.488 13.707l109.945 63.477c3.385-11.625 6.719-24.117 6.719-24.117l0.341-5.04ZM138.74 381.20399999999995l110.022 63.521v-24.544s1.797-2.396 4.518-6.081l-104.355-60.25c-3.975 9.292-7.379 18.413-10.187 27.354ZM263.877 399.536c6.918-9.669 13.941-19.883 15.563-23.667 0.061-0.142 0.127-0.311 0.19-0.468l-109.617-63.289c-4.977 8.594-9.516 17.057-13.593 25.385l107.457 62.039ZM160.199 231.84699999999998l133.424 77.031 2.163-31.984-132.806-76.676c-3.474 9.102-3.892 20.329-2.781 31.627ZM171.468 184.43899999999996l125.663 72.551 0.489-7.244s8.731-8.723 17.41-15.652l-127.537-73.635c-24.075 32.246-42.132 70.496-51.651 112.002ZM198.727 146.26l372.496 215.062 17.426-23.17-369.46-213.31c-7.516 6.913-14.347 14.192-20.464 21.419ZM233.823 112.60900000000004l365.676 211.121 17.428-23.171-355.106-205.021c-10.032 4.717-19.371 10.56-27.997 17.071ZM551.071 219.015l-12.265 3.62-9.841-8.167c-31.731-26.337-56.822-46.923-77.081-63.109l-113.047-65.268c-2.141-0.421-4.364-0.861-6.697-1.334-5.377-0.827-11.579-1.3-17.892-1.302-10.592 0-20.816 1.463-30.523 4.051l389.253 224.737c22.685 6.51 47.433 14.183 64.85 19.239 37.381 10.853 14.469 24.799 14.469 24.799l-1.287 1.012 130.737 75.482c4.135-9.827 7.238-19.071 9.438-27.785l-329.158-190.039c-3.548 1.555-7.161 2.949-10.951 4.069ZM840.609 272.01300000000003c-3.436-3.348-6.735-6.577-9.867-9.753l-65.021-37.542c-7.184-2.575-15.179-5.223-24.082-7.926-29.461-8.941-59.851-15.807-83.045-20.692l226.338 130.676c-10.852-22.151-28.367-39.223-44.321-54.765ZM893.598 352.466l-276.559-159.671c-14.091 2.124-25.23 7.21-35.761 12.588l313.381 180.931c1.44-12.395 0.921-23.604-1.063-33.847Z"  horiz-adv-x="1024" />

    
    <glyph glyph-name="table" unicode="&#59181;" d="M329.142857 109.714286v109.714285c0 10.276571-8.009143 18.285714-18.285714 18.285715h-182.857143c-10.276571 0-18.285714-8.009143-18.285714-18.285715v-109.714285c0-10.276571 8.009143-18.285714 18.285714-18.285715h182.857143c10.276571 0 18.285714 8.009143 18.285714 18.285715z m0 219.428571v109.714286c0 10.276571-8.009143 18.285714-18.285714 18.285714h-182.857143c-10.276571 0-18.285714-8.009143-18.285714-18.285714v-109.714286c0-10.276571 8.009143-18.285714 18.285714-18.285714h182.857143c10.276571 0 18.285714 8.009143 18.285714 18.285714z m292.571429-219.428571v109.714285c0 10.276571-8.009143 18.285714-18.285715 18.285715h-182.857142c-10.276571 0-18.285714-8.009143-18.285715-18.285715v-109.714285c0-10.276571 8.009143-18.285714 18.285715-18.285715h182.857142c10.276571 0 18.285714 8.009143 18.285715 18.285715z m-292.571429 438.857143v109.714285c0 10.276571-8.009143 18.285714-18.285714 18.285715h-182.857143c-10.276571 0-18.285714-8.009143-18.285714-18.285715v-109.714285c0-10.276571 8.009143-18.285714 18.285714-18.285715h182.857143c10.276571 0 18.285714 8.009143 18.285714 18.285715z m292.571429-219.428572v109.714286c0 10.276571-8.009143 18.285714-18.285715 18.285714h-182.857142c-10.276571 0-18.285714-8.009143-18.285715-18.285714v-109.714286c0-10.276571 8.009143-18.285714 18.285715-18.285714h182.857142c10.276571 0 18.285714 8.009143 18.285715 18.285714z m292.571428-219.428571v109.714285c0 10.276571-8.009143 18.285714-18.285714 18.285715h-182.857143c-10.276571 0-18.285714-8.009143-18.285714-18.285715v-109.714285c0-10.276571 8.009143-18.285714 18.285714-18.285715h182.857143c10.276571 0 18.285714 8.009143 18.285714 18.285715z m-292.571428 438.857143v109.714285c0 10.276571-8.009143 18.285714-18.285715 18.285715h-182.857142c-10.276571 0-18.285714-8.009143-18.285715-18.285715v-109.714285c0-10.276571 8.009143-18.285714 18.285715-18.285715h182.857142c10.276571 0 18.285714 8.009143 18.285715 18.285715z m292.571428-219.428572v109.714286c0 10.276571-8.009143 18.285714-18.285714 18.285714h-182.857143c-10.276571 0-18.285714-8.009143-18.285714-18.285714v-109.714286c0-10.276571 8.009143-18.285714 18.285714-18.285714h182.857143c10.276571 0 18.285714 8.009143 18.285714 18.285714z m0 219.428572v109.714285c0 10.276571-8.009143 18.285714-18.285714 18.285715h-182.857143c-10.276571 0-18.285714-8.009143-18.285714-18.285715v-109.714285c0-10.276571 8.009143-18.285714 18.285714-18.285715h182.857143c10.276571 0 18.285714 8.009143 18.285714 18.285715z m73.142857 182.857142v-621.714285c0-50.285714-41.142857-91.428571-91.428571-91.428572h-768A91.684571 91.684571 0 0 0 36.571429 109.714286v621.714285C36.571429 781.714286 77.714286 822.857143 128 822.857143h768C946.285714 822.857143 987.428571 781.714286 987.428571 731.428571z"  horiz-adv-x="1024" />

    
    <glyph glyph-name="ditumoban" unicode="&#58900;" d="M942.708556-64.0055H82.787518c-10.358929 0-18.742876 8.397251-18.742876 18.743899V814.658414c0 10.358929 8.384971 18.742876 18.742876 18.742876h859.921038c10.346649 0 18.7439-8.384971 18.743899-18.742876V-45.250344c0-10.358929-8.397251-18.755156-18.743899-18.755156z m-841.177138 37.486776h822.434261V795.915537H101.531418v-822.434261zM867.048365 559.398776H158.448732c-10.358929 0-18.742876 8.384971-18.742877 18.742876V739.684862c0 10.358929 8.384971 18.742876 18.742877 18.742876h708.611913c10.346649 0 18.742876-8.384971 18.742876-18.742876v-161.54321c-0.01228-10.357905-8.396227-18.742876-18.755156-18.742876z m-689.856757 37.486776h671.125137V720.941985h-671.125137v-124.056433zM475.261261 261.304564H158.448732c-10.358929 0-18.742876 8.397251-18.742877 18.742876v223.121683c0 10.358929 8.384971 18.742876 18.742877 18.742877h316.813552c10.346649 0 18.742876-8.384971 18.742877-18.742877v-223.10838c0-10.359952-8.397251-18.756179-18.7439-18.756179z m-298.069653 37.486775h279.326777V484.425224H177.191608v-185.633885zM475.261261 10.254807H158.448732c-10.358929 0-18.742876 8.397251-18.742877 18.7439V217.56948c0 10.346649 8.384971 18.742876 18.742877 18.742876h316.813552c10.346649 0 18.742876-8.397251 18.742877-18.742876v-188.583053c0-10.346649-8.397251-18.73162-18.7439-18.73162z m-298.069653 37.486776h279.326777V198.826604H177.191608v-151.085021zM867.048365 10.254807H550.234813c-10.346649 0-18.7439 8.397251-18.7439 18.7439V217.56948c0 10.346649 8.397251 18.742876 18.7439 18.742876h316.813552c10.346649 0 18.7439-8.397251 18.7439-18.742876v-188.583053c-0.001023-10.346649-8.384971-18.73162-18.7439-18.73162z m-298.069653 37.486776H848.304466V198.826604H568.978712v-151.085021zM867.048365 410.351158H550.234813c-10.346649 0-18.7439 8.384971-18.7439 18.742876v74.074066c0 10.358929 8.397251 18.742876 18.7439 18.742876h316.813552c10.346649 0 18.7439-8.384971 18.7439-18.742876v-74.074066c-0.001023-10.357905-8.384971-18.742876-18.7439-18.742876z m-298.069653 37.486776H848.304466v36.58729H568.978712v-36.58729zM867.048365 261.304564H550.234813c-10.346649 0-18.7439 8.397251-18.7439 18.742876v74.074066c0 10.358929 8.397251 18.742876 18.7439 18.742876h316.813552c10.346649 0 18.7439-8.384971 18.7439-18.742876v-74.074066c-0.001023-10.346649-8.384971-18.742876-18.7439-18.742876z m-298.069653 37.486775H848.304466V335.378629H568.978712v-36.58729z"  horiz-adv-x="1024" />

    
    <glyph glyph-name="ziyuan" unicode="&#58891;" d="M384 800v-288H96V800h288m-1.28 96h-288A96 96 0 0 1 0 800v-288a96 96 0 0 1 94.72-96h288A97.28 97.28 0 0 1 480 512V800a97.44 97.44 0 0 1-97.28 96zM384 256v-288H96V256h288m0 96H96a96 96 0 0 1-96-96v-288a96 96 0 0 1 96-96h288a96 96 0 0 1 96 96V256a96 96 0 0 1-96 96zM1104 800H624a50.24 50.24 0 0 1-48-50.4v1.28A48 48 0 0 1 624 704h480a46.24 46.24 0 0 1 48 45.6v1.28A49.12 49.12 0 0 1 1104 800zM1104 608H624a46.24 46.24 0 0 1-48-45.76v-1.12A49.12 49.12 0 0 1 624 512h480a50.08 50.08 0 0 1 48 50.24v-1.12A48 48 0 0 1 1104 608zM1104 256H624a48 48 0 0 1 0-96h480a48 48 0 0 1 0 96zM1104 64H624a48 48 0 0 1 0-96h480a48 48 0 0 1 0 96z"  horiz-adv-x="1152" />

    
    <glyph glyph-name="biaoqian" unicode="&#59504;" d="M753.755 324.289c0 14.928-5.098 27.792-15.534 39.079l-305.593 304.985c-10.801 10.801-25.607 20.025-43.569 27.792-18.447 7.767-34.953 11.286-49.881 11.286h-177.797c-14.928 0-27.792-5.703-38.471-16.384s-16.384-23.545-16.384-38.471v-177.189c0-14.928 3.641-31.918 11.286-49.881 7.767-18.447 16.384-32.768 27.792-43.569l305.593-305.593c10.801-10.801 23.545-15.534 38.471-15.534s27.792 5.098 39.079 15.534l209.473 209.473c9.83 10.801 15.534 23.545 15.534 38.471zM281.653 531.698c-10.801-10.801-23.545-15.777-38.471-15.777s-27.792 5.098-38.471 15.777c-10.801 10.801-15.777 23.545-15.777 38.471s5.098 27.792 15.777 38.471c10.801 10.801 23.545 15.777 38.471 15.777s27.792-5.098 38.471-15.777 15.534-23.545 15.534-38.471c0.85-15.17-4.854-27.67-15.534-38.471zM902.061 363.732l-305.593 304.621c-10.801 10.801-25.607 20.025-43.569 27.792-18.447 7.767-34.953 11.286-49.881 11.286h-96.119c14.928 0 31.918-3.641 49.881-11.286 18.447-7.767 32.768-16.384 43.569-27.792l305.593-304.621c10.801-11.286 15.777-24.151 15.777-39.079s-5.098-27.792-15.777-38.471l-200.249-200.855c8.617-8.617 16.384-14.928 22.695-19.054s14.928-5.703 25.122-5.703c14.928 0 27.792 5.098 39.079 15.777l209.473 210.079c10.801 10.801 15.534 23.545 15.534 38.471-0.122 14.928-5.098 27.185-15.534 38.836z"  horiz-adv-x="1024" />

    
    <glyph glyph-name="yunzhujijiankong" unicode="&#58965;" d="M608 800c19.2 0 32-12.8 32-32v-576c0-19.2-12.8-32-32-32h-192c-19.2 0-32 12.8-32 32V768c0 19.2 12.8 32 32 32h192m0 64h-192C364.8 864 320 819.2 320 768v-576c0-51.2 44.8-96 96-96h192c51.2 0 96 44.8 96 96V768c0 51.2-44.8 96-96 96zM448 736h128v-64H448zM448 608h128v-64H448zM512 352m-64 0a64 64 0 1 1 128 0 64 64 0 1 1-128 0ZM780.8 384h-19.2c-12.8 32-38.4 57.6-57.6 76.8V352l19.2-38.4 44.8 6.4H787.2c96 0 179.2-76.8 179.2-179.2 0-89.6-70.4-166.4-166.4-172.8H192c-70.4 0-128 57.6-128 128s57.6 128 128 128h64l6.4 57.6c6.4 44.8 25.6 89.6 57.6 121.6V486.4c-64-44.8-108.8-115.2-121.6-198.4H192c-108.8 0-192-83.2-192-192s83.2-192 192-192h608c128 6.4 224 108.8 224 236.8C1024 275.2 915.2 384 780.8 384z"  horiz-adv-x="1024" />

    
    <glyph glyph-name="caidanguanli" unicode="&#58899;" d="M418.230044 782.222222H160.659911A46.887822 46.887822 0 0 1 113.777778 735.340089v-257.666845c0-25.844622 20.946489-46.791111 46.882133-46.791111h257.570133a46.785422 46.785422 0 0 1 46.791112 46.791111v257.763556C465.117867 761.275733 444.171378 782.222222 418.230044 782.222222z m445.013334 0h-257.570134c-25.844622 0-46.791111-20.946489-46.791111-46.882133v-257.666845a46.785422 46.785422 0 0 1 46.791111-46.791111h257.666845c25.844622 0 46.882133 20.946489 46.882133 46.791111v257.763556A46.944711 46.944711 0 0 1 863.243378 782.222222zM418.230044 337.214578H160.659911c-25.844622 0-46.882133-20.946489-46.882133-46.791111v-257.666845a46.887822 46.887822 0 0 1 46.882133-46.882133h257.570133c25.844622 0 46.791111 20.9408 46.791112 46.882133v257.666845c0.096711 25.844622-20.849778 46.791111-46.791112 46.791111z m462.887823-182.528c5.165511-7.059911 11.940978-12.117333 20.320711-15.166578 1.956978-1.109333 3.629511-2.218667 5.023289-3.322311 3.072-2.491733 5.176889-5.677511 6.291911-9.557333 0.557511-3.328 0.420978-7.338667-0.420978-12.054756a72.066844 72.066844 0 0 0-4.192711-14.330311c-1.951289-4.846933-4.323556-9.210311-7.122489-13.084445-2.787556-3.879822-5.859556-6.656-9.216-8.317155-3.356444-1.661156-6.286222-2.486044-8.800711-2.486045-2.520178 0-5.307733 0.551822-8.379733 1.661156a88.462222 88.462222 0 0 1-10.478934 2.275556 49.282844 49.282844 0 0 1-12.782933 0.420977c-4.323556-0.415289-8.658489-1.319822-12.987733-2.696533a25.463467 25.463467 0 0 1-11.104712-7.0656c-6.7072-6.929067-10.615467-14.819556-11.736177-23.682844a46.341689 46.341689 0 0 1 3.777422-25.349689c2.787556-5.540978 2.372267-11.081956-1.262933-16.617245-1.672533-2.218667-4.329244-4.5056-7.964445-6.855111-3.629511-2.360889-7.611733-4.5056-11.940978-6.445511-4.323556-1.934222-8.868978-3.458844-13.6192-4.568178-4.750222-1.109333-8.931556-1.666844-12.572444-1.666844-2.5088 0-4.886756 0.967111-7.1168 2.912711-2.241422 1.939911-3.777422 4.016356-4.613689 6.229333h-0.420978c-3.072 8.590222-8.305778 16.002844-15.712711 22.232178-7.401244 6.229333-15.997156 9.346844-25.770667 9.346844-9.500444 0-18.090667-3.117511-25.770666-9.346844s-13.061689-13.505422-16.133689-21.816889c-1.399467-3.322311-3.492978-5.745778-6.286222-7.2704a18.921244 18.921244 0 0 0-9.216-2.286933c-3.913956 0-8.317156 0.694044-13.203911 2.076444a124.182756 124.182756 0 0 0-14.665956 5.193956 70.166756 70.166756 0 0 0-13.198222 7.276089c-3.913956 2.7648-6.849422 5.535289-8.8064 8.305777a12.5952 12.5952 0 0 0-2.298311 6.8608c-0.147911 2.628267 0.904533 6.303289 3.134577 11.008 3.072 6.371556 4.266667 13.641956 3.561245 21.816889-0.694044 8.169244-4.260978 15.7184-10.678045 22.641778a27.300978 27.300978 0 0 1-14.250666 8.100978 58.407822 58.407822 0 0 1-15.928889 1.456355 70.843733 70.843733 0 0 1-18.016711-3.322311c-3.908267-1.109333-7.822222-0.830578-11.730489 0.830578-3.072 1.109333-5.9392 3.669333-8.590222 7.685689a85.134222 85.134222 0 0 0-7.122489 13.294933 81.3568 81.3568 0 0 0-4.818489 14.961778c-1.120711 5.12-1.399467 9.346844-0.841956 12.669156 0.841956 6.098489 3.6352 9.978311 8.385423 11.633777 8.374044 3.328 15.917511 8.795022 22.624711 16.412445 6.7072 7.623111 10.057956 16.139378 10.057955 25.560178 0 9.693867-3.356444 18.147556-10.057955 25.344-6.7072 7.202133-14.244978 12.464356-22.624711 15.792355-2.520178 0.824889-4.613689 2.838756-6.286223 6.018845a20.781511 20.781511 0 0 0-2.514489 9.767822c0 3.601067 0.557511 7.623111 1.672534 12.049067 1.120711 4.437333 2.588444 8.726756 4.397511 12.879644 1.820444 4.152889 3.913956 7.964444 6.286222 11.428978 2.377956 3.464533 4.960711 6.030222 7.753956 7.685689 2.235733 1.388089 4.397511 1.939911 6.496711 1.661155 2.093511-0.273067 4.397511-0.830578 6.912-1.661155a51.143111 51.143111 0 0 1 26.191644-3.117511c9.079467 1.251556 17.112178 5.193956 24.092445 11.844266 3.356444 3.322311 5.802667 7.412622 7.338666 12.259556 1.536 4.846933 2.514489 9.6256 2.929778 14.336 0.420978 4.704711 0.420978 8.999822 0 12.879644a162.292622 162.292622 0 0 1-1.046755 8.311467 44.635022 44.635022 0 0 0-1.467734 5.814044c-0.415289 2.218667-0.210489 4.152889 0.625778 5.819734 1.678222 3.879822 4.681956 7.2704 9.0112 10.183111a70.883556 70.883556 0 0 0 14.040178 7.2704 91.818667 91.818667 0 0 0 14.665955 4.357689c4.744533 0.967111 8.521956 1.456356 11.3152 1.456355 3.629511 0 6.496711-1.1776 8.590223-3.5328 2.093511-2.349511 3.561244-4.778667 4.397511-7.2704 3.072-7.480889 8.100978-14.057244 15.086933-19.740444 6.985956-5.677511 15.223467-8.516267 24.718222-8.516267 9.784889 0 18.443378 2.702222 25.986845 8.100978 7.543467 5.404444 12.856889 12.259556 15.9232 20.571022 1.120711 2.212978 2.8672 4.499911 5.233777 6.855111 2.377956 2.3552 4.824178 3.527111 7.338667 3.527111 3.908267 0 8.169244-0.546133 12.782933-1.655466 4.608-1.109333 9.147733-2.633956 13.613512-4.573867 4.471467-1.939911 8.590222-4.431644 12.361955-7.4752 3.771733-3.049244 6.769778-6.371556 9.0112-9.972622 1.399467-2.218667 1.820444-4.642133 1.257245-7.276089-0.557511-2.628267-1.115022-4.494222-1.678223-5.603556-3.629511-8.032711-4.744533-16.4864-3.356444-25.349689 1.405156-8.863289 5.461333-16.617244 12.162844-23.267555 6.695822-6.650311 14.939022-10.319644 24.718223-11.008 9.7792-0.694044 18.858667 0.898844 27.2384 4.772978 2.235733 1.388089 4.955022 1.939911 8.169244 1.661155a12.8 12.8 0 0 0 8.174933-3.7376c4.192711-3.879822 7.890489-9.762133 11.104711-17.658311a99.612444 99.612444 0 0 0 6.496712-23.893333c0.557511-4.7104-0.210489-8.374044-2.309689-11.013689-2.093511-2.628267-4.260978-4.357689-6.491023-5.193956-8.664178-3.043556-16.065422-8.374044-22.215111-15.991466-6.144-7.623111-9.216-16.270222-9.216-25.969778 0.005689-9.4208 2.594133-17.658311 7.765334-24.723911z m-98.480356 88.917333c-8.237511 8.174933-17.954133 14.620444-29.127111 19.325156-11.172978 4.7104-23.04 7.054222-35.612444 7.054222s-24.382578-2.343822-35.413334-7.054222a91.830044 91.830044 0 0 1-28.916622-19.319467 90.936889 90.936889 0 0 1-19.484444-28.672c-4.744533-10.945422-7.122489-22.647467-7.122489-35.111822s2.377956-24.172089 7.122489-35.111822a93.411556 93.411556 0 0 1 19.484444-28.8768 90.089244 90.089244 0 0 1 28.916622-19.529956c11.036444-4.7104 22.840889-7.0656 35.413334-7.0656s24.439467 2.3552 35.612444 7.0656c11.172978 4.7104 20.8896 11.218489 29.127111 19.529956a93.462756 93.462756 0 0 1 19.484445 28.8768c4.750222 10.939733 7.122489 22.641778 7.122488 35.111822 0 12.458667-2.372267 24.1664-7.122488 35.111822a90.897067 90.897067 0 0 1-19.484445 28.672z"  horiz-adv-x="1024" />

    
    <glyph glyph-name="fuwuwangguan-" unicode="&#58934;" d="M995.55328 341.33504l-88.17664 275.91168C901.68832 631.46496 890.31168 665.6 850.48832 665.6H173.51168c-39.82336 0-51.2-34.13504-56.88832-48.35328L28.44672 341.33504v-221.86496c0-17.06496 11.37664-28.44672 28.44672-28.44672H967.1168c17.06496 0 28.44672 11.37664 28.44672 28.44672v216.17664l-0.01024 5.68832z m-824.88832 256c2.84672 5.68832 2.84672 8.53504 5.68832 11.37664h674.13504c0-2.84672 2.84672-5.68832 2.84672-8.53504l85.33504-264.53504L85.33504 332.8l85.32992 264.53504z m-85.32992-449.42336v128h853.33504v-128H85.33504zM807.82336 483.55328c-34.13504 0-62.57664-31.28832-56.88832-68.26496 5.68832-19.91168 19.91168-36.97664 39.82336-42.66496 11.37664-2.84672 22.75328-2.84672 34.13504 0 22.75328 8.53504 39.82336 28.44672 39.82336 54.04672-0.00512 31.2832-25.60512 56.8832-56.89344 56.8832zM281.6 241.77664h-28.44672c-17.06496 0-28.44672-11.37664-28.44672-28.44672 0-17.06496 11.37664-28.44672 28.44672-28.44672h25.6c17.06496 0 28.44672 11.37664 28.44672 28.44672s-11.37664 28.44672-25.6 28.44672z m119.46496 0h-25.6c-17.06496 0-28.44672-11.37664-28.44672-28.44672 0-17.06496 11.37664-28.44672 28.44672-28.44672h25.6c17.06496 0 28.44672 11.37664 28.44672 28.44672s-11.37664 28.44672-28.44672 28.44672z m122.31168 0h-25.6c-17.06496 0-28.44672-11.37664-28.44672-28.44672 0-17.06496 11.37664-28.44672 28.44672-28.44672h25.6c17.06496 0 28.44672 11.37664 28.44672 28.44672s-14.22336 28.44672-28.44672 28.44672z m119.47008 0h-25.6c-17.06496 0-28.44672-11.37664-28.44672-28.44672 0-17.06496 11.37664-28.44672 28.44672-28.44672h25.6c17.06496 0 28.44672 11.37664 28.44672 28.44672-0.00512 17.07008-11.38176 28.44672-28.44672 28.44672z m125.15328 0h-28.44672c-17.06496 0-28.44672-11.37664-28.44672-28.44672 0-17.06496 11.37664-28.44672 28.44672-28.44672H768c17.06496 0 28.44672 11.37664 28.44672 28.44672s-14.22336 28.44672-28.44672 28.44672z"  horiz-adv-x="1024" />

    
    <glyph glyph-name="yunfuwuqi" unicode="&#58886;" d="M660.053 896C451.115 896 280.32 738.923 265.493 539.99 111.872 497.535 0 367.36 0 213.332 0 31.66 155.67-117.61 352-128h660.053C1230.571-128 1408 53.525 1408 277.333c0 215.766-173.803 391.467-392.96 404.139C950.4 808.448 816 896 660.053 896z m-254.72-448c0 35.35 28.8 64 63.915 64h469.504a64 64 0 0 0 0-128H469.248a64 64 0 0 0-63.915 64z m0-170.667c0 35.35 28.8 64 63.915 64h469.504a64 64 0 0 0 0-128H469.248a64 64 0 0 0-63.915 64z m0-170.666c0 35.349 28.8 64 63.915 64h469.504a64 64 0 0 0 0-128H469.248a64 64 0 0 0-63.915 64z"  horiz-adv-x="1408" />

    
    <glyph glyph-name="quanxianguanli" unicode="&#58893;" d="M738.451207 425.905561c56.948583 0 110.136411-17.729276 153.116474-48.35257 42.442812 48.889822 68.23085 112.285414 68.23085 181.590766 0 153.653725-125.716684 277.758657-280.982162 277.758656S397.834208 712.797482 397.834208 559.143757c0-17.192025 1.611752-34.38405 4.835257-51.038825L60.440714 170.174187v-166.547744c0-30.623295 25.250787-55.336831 56.411332-55.336831h56.411333v55.336831h112.285414v111.210913h112.285415v111.210913H481.10808c27.937041 114.434418 132.163694 199.857293 257.343127 199.857292z m24.713536 299.248689c46.740818 0 84.348374-37.070304 84.348373-83.273872s-37.607555-83.273872-84.348373-83.273872-84.348374 37.070304-84.348374 83.273872 37.607555 83.273872 84.348374 83.273872z m186.426023-515.760756h-41.905561c-3.760756 8.596013-9.670514 25.788038-16.654775 38.144806l29.548794 28.474292c9.133263 9.133263 9.133263 23.639035 0 32.772298l-33.8468 33.309549c-9.133263 9.133263-24.713536 9.133263-33.8468 0l-27.937041-29.548794c-12.356768 6.98426-30.086044 12.356768-38.682056 16.654775v41.36831c0 12.894019-13.96852 23.639035-27.39979 23.639035h-47.81532c-13.43127 0-27.39979-10.745016-27.399791-23.639035v-41.36831c-8.596013-3.760756-26.325289-9.670514-38.682056-16.654775l-29.011543 29.011543c-9.133263 9.133263-24.176285 9.133263-33.309549 0l-33.309548-33.309549c-9.133263-9.133263-9.133263-24.176285 0-33.309549l29.548793-27.39979c-6.98426-12.356768-12.894019-30.086044-16.654774-38.144806h-41.905562c-13.43127 0-23.639035-13.96852-23.639034-26.862539v-47.278069c0-12.894019 10.745016-26.862539 23.639034-26.86254h41.905562c3.760756-8.596013 9.670514-25.788038 16.654774-38.144806l-29.548793-28.474291c-9.133263-9.133263-9.133263-23.639035 0-32.772298l33.846799-33.309549c9.133263-9.133263 24.713536-9.133263 33.8468 0l27.937041 29.548793c12.356768-6.98426 30.086044-12.356768 38.682056-16.654774v-41.368311c0-12.894019 13.96852-23.639035 27.399791-23.639034h47.81532c13.43127 0 27.39979 10.745016 27.39979 23.639034v41.368311c8.596013 3.760756 26.325289 9.670514 38.682056 16.654774l29.011543-29.011542c9.133263-9.133263 24.176285-9.133263 33.309549 0l33.846799 33.309548c9.133263 9.133263 9.133263 24.176285 0 33.309549l-29.548793 27.39979c6.98426 12.356768 12.894019 30.086044 16.654774 38.144806h41.905562c13.43127 0 23.639035 13.96852 23.639034 26.86254v47.278069c0 12.894019-10.745016 26.862539-24.176285 26.862539zM735.227702 52.516264c-59.097587 0-107.450157 47.81532-107.450157 106.375656s48.352571 106.375656 107.450157 106.375656c59.634837 0 107.450157-47.278069 107.450157-106.375656s-47.81532-106.375656-107.450157-106.375656z"  horiz-adv-x="1024" />

    
    <glyph glyph-name="video_kongjiandiejiafenxi" unicode="&#58942;" d="M230.4 337.5V664.7h348.7v-130h33.1V697.5H197.6v-415.3h160.6V315H252.9c-12.4-0.1-22.5 10-22.5 22.5Zm543.9 152.1H404.8v-415.3h414.6V444.5c0 24.9-20.2 45.1-45.1 45.1Zm12.3-360c0-12.5-10.1-22.5-22.5-22.5H437.5V456.9h349.1v-327.3ZM739.5 696.7H762v-134.8h-22.5ZM683.3 640.6h134.8v-22.5H683.3ZM459.5 250.79999999999995c-5.3 0-9.4 4.2-9.4 9.5 0 5.2 4.2 9.5 9.4 9.5h69.8L571 340c1.3 2.2 3.4 3.8 5.8 4.4 2.4 0.6 5 0.3 7.2-1 1.3-0.8 2.3-1.9 3.1-3.1l40.6-65.2 20.2 21.3c3.6 3.7 9.6 3.9 13.5 0.2 0.8-0.9 1.6-1.8 2-2.9l23.5-47.4L716 369.4c1.2 5.2 6.4 8.2 11.6 7 1.7-0.4 3.1-1.2 4.4-2.5l43-43.5c3.6-3.6 3.6-9.6-0.1-13.5-3.7-3.5-9.8-3.5-13.5 0.2l-30.8 31.2-31.3-131.8c-0.6-2.7-2.5-5.2-5.1-6.2-4.7-2.6-10.3-0.7-12.5 4l-29.2 59.1-19.1-20c-0.7-0.8-1.4-1.5-2.2-1.8-4.5-2.8-10.2-1.5-13 2.9l-38.8 62.3-36.4-61c-1.6-3.1-4.7-5.1-8.3-5.1h-75.2v0.1Z"  horiz-adv-x="1024" />

    
    <glyph glyph-name="zuzhiguanli" unicode="&#58911;" d="M1157.584116 173.285199v240.658483H675.527798V534.457762h241.028159v361.542238H374.612274v-361.542238h241.028159v-120.51408H133.584116V173.285199h-120.51408v-301.285199h301.285199V173.285199H193.841155v180.771119h421.799278V173.285199H495.126354v-301.285199h300.915523V173.285199h-120.514079v180.771119h421.799278V173.285199h-120.51408v-301.285199h301.285199V173.285199z"  horiz-adv-x="1368" />

    
    <glyph glyph-name="yunpan" unicode="&#59033;" d="M1023.8208 49.1008v12.8a158.464 158.464 0 0 1-9.6512 54.4512L904.3712 791.3984c0 46.9248-38.4 85.3248-85.3248 85.3248H213.2992a85.5808 85.5808 0 0 1-85.3248-85.3248L0 87.5008l1.9712-0.3584a163.072 163.072 0 0 1-1.9712-25.2416v-12.8c0-85.2992 68.2496-157.7984 157.8496-157.7984h708.1472c89.5488 0 162.0736 68.2496 157.824 157.7984zM200.4992 787.1488v4.2496c0 8.5504 8.5248 12.8 17.0752 17.0752h605.7728c8.5248 0 17.0496-8.5248 17.0496-17.0752v-4.2496l94.2336-582.8864a157.5168 157.5168 0 0 1-68.6336 15.488H157.8496a157.696 157.696 0 0 1-61.4912-12.4416l104.1408 579.84z m755.0464-742.2976c0-51.2-42.6496-89.5488-89.5744-89.5488H157.8496c-51.2 0-89.6 42.6496-89.6 89.5488v12.8c0 6.0416 0.64 11.904 1.7664 17.5104l2.5088-0.4608 3.456 19.1488c14.336 32.0512 46.9248 53.4016 81.8688 53.4016h708.1472c51.1744 0 89.5744-42.6496 89.5744-89.6v-12.8zM136.5248 74.7008h123.7248v-46.8992H136.5248zM383.9232 322.1504h315.6736c38.4 0 68.2496 12.8 85.3248 38.4a161.792 161.792 0 0 1 29.8496 110.8992c-8.5248 68.2752-68.2496 98.1248-110.8992 119.4496-8.5248 76.8-72.5248 136.5248-149.2992 136.5248-42.6752 0-81.0752-17.0752-110.9248-51.2-42.6496 0-85.3248-34.1248-102.3744-76.8-46.9248-17.0496-110.9248-42.6496-123.7248-127.9744-4.2752-29.8496 4.2752-55.4496 25.6-81.0496 34.1504-42.6496 98.1248-64 140.7744-68.2496z m-12.7744 230.3744l17.0752 4.2496 4.2752 12.8c4.2752 25.6 29.8752 46.9248 55.4752 46.9248h8.5248l17.0752-4.2752 8.5248 12.8c17.0752 25.6 46.9248 42.6752 76.7744 42.6752 55.4496 0 98.1248-46.9248 98.1248-102.4v-17.0496l17.0496-8.5248c46.9248-17.0752 89.6-38.4 93.8496-81.0752 4.2752-29.8496-4.2496-51.1744-17.0496-68.2496-12.8-8.5248-25.6-17.0496-46.9248-17.0496H388.1984c-34.1248 4.2752-81.0496 21.3248-102.4 51.1744-12.8 12.8-12.8 25.6-12.8 42.6752 4.3008 51.2 42.6752 68.2496 98.1504 85.3248z"  horiz-adv-x="1024" />

    
    <glyph glyph-name="rizhichakan-xianxing" unicode="&#58909;" d="M803 824H221c-39.764 0-72-32.235-72-72v-736c0-39.765 32.236-72 72-72h582c39.764 0 72 32.236 72 72V752c0 39.765-32.236 72-72 72z m0-808H221V752h582v-736zM348 608h328c19.882 0 36 16.118 36 36s-16.118 36-36 36H348c-19.882 0-36-16.118-36-36s16.118-36 36-36z m123-444c38.089 0 73.69 10.651 103.991 29.132l117.676-117.676c14.059-14.059 36.853-14.059 50.912 0 14.059 14.059 14.059 36.853 0 50.912L628.812 241.135C655.246 275.039 671 317.678 671 364c0 110.457-89.543 200-200 200s-200-89.543-200-200 89.543-200 200-200z m0.5 331c71.797 0 130-58.203 130-130s-58.203-130-130-130-130 58.203-130 130 58.203 130 130 130z"  horiz-adv-x="1024" />

    
    <glyph glyph-name="erji-xuniziyuan" unicode="&#60088;" d="M204.8 697.6m-32 0a32 32 0 1 1 64 0 32 32 0 1 1-64 0ZM128 563.2h761.6c32 0 64 25.6 64 64V768c0 32-25.6 64-64 64H128c-38.4 0-64-32-64-64v-140.8c0-38.4 25.6-64 64-64ZM883.2 768v-140.8L128 620.8V768h755.2ZM204.8 384m-32 0a32 32 0 1 1 64 0 32 32 0 1 1-64 0ZM121.6 249.60000000000002h320c19.2 0 32 12.8 32 32s-12.8 32-32 32L128 307.20000000000004l-6.4 147.2 761.6 6.4 6.4-140.8c-19.2 0-32-12.8-32-32s12.8-32 32-32c32 0 57.6 25.6 57.6 57.6V460.8c0 32-25.6 57.6-57.6 57.6h-768c-32 0-57.6-25.6-57.6-57.6v-147.2c0-38.4 25.6-64 57.6-64ZM204.8 70.39999999999998m-32 0a32 32 0 1 1 64 0 32 32 0 1 1-64 0ZM326.4 204.79999999999995H121.6c-32 0-57.6-25.6-57.6-57.6V0c0-32 25.6-64 57.6-64h185.6c19.2 0 32 12.8 32 32s-6.4 32-25.6 32H128l-6.4 140.8H320c19.2 0 32 12.8 32 32s-6.4 32-25.6 32ZM864 147.20000000000004c0 76.8-64 140.8-140.8 140.8-38.4 0-76.8-19.2-108.8-44.8-12.8 6.4-25.6 6.4-38.4 6.4-44.8 0-83.2-32-96-76.8-64 0-115.2-51.2-115.2-115.2s51.2-115.2 115.2-115.2h364.8c57.6 0 108.8 44.8 108.8 108.8 6.4 51.2-38.4 96-89.6 96Zm-12.8-147.2H486.4c-25.6 0-51.2 25.6-51.2 51.2s25.6 51.2 51.2 51.2c6.4 0 12.8 0 19.2-6.4 12.8-6.4 25.6 0 32 6.4 6.4 6.4 12.8 19.2 6.4 32v12.8c0 25.6 38.4 38.4 51.2 19.2 6.4-6.4 19.2-12.8 25.6-6.4 12.8 0 19.2 6.4 25.6 19.2 12.8 25.6 38.4 44.8 70.4 44.8 44.8 0 76.8-32 76.8-76.8 0-6.4 0-12.8-6.4-25.6s0-25.6 6.4-32 25.6-12.8 32-6.4c25.6 12.8 57.6-12.8 57.6-38.4 12.8-25.6-6.4-44.8-32-44.8Z"  horiz-adv-x="1024" />

    
    <glyph glyph-name="mulufuwu" unicode="&#58915;" d="M989.2608 565.8624L512.0256 896 34.7392 565.8624 512.0256 235.52l477.2352 330.1376m-477.2352-403.5584L90.752 442.7264 34.7392 384l477.2864-330.1376L989.2608 384l-56.7296 59.9552-420.5056-281.856m0-181.8624L90.752 261.12 34.7392 202.1376 512.0256-128l477.2352 330.1376-56.7296 59.9552z"  horiz-adv-x="1024" />

    
    <glyph glyph-name="biao" unicode="&#59168;" d="M165.429 705.816v-643.633h693.143V705.816H165.429Zm470.346-160.908H809.061v-111.398H635.775V544.909ZM388.224 111.69399999999996H214.938V225.56799999999998h173.286v-113.874Zm0 163.383H214.938V384h173.286v-108.923Zm0 158.433H214.938V544.909h173.286v-111.398ZM586.265 111.69399999999996H437.735V225.56799999999998h148.531v-113.874Zm0 163.383H437.735V384h148.531v-108.923Zm0 158.433H437.735V544.909h148.531v-111.398ZM809.061 111.69399999999996H635.775V225.56799999999998H809.061v-113.874Zm0 163.383H635.775V384H809.061v-108.923Z"  horiz-adv-x="1024" />

    
    <glyph glyph-name="ziyuanmulupeizhi" unicode="&#58993;" d="M147.00032 781.99808h680.00256v-315.60192h50.00704V832H96.9984v-896h307.59936v50.00192H147.00032V781.99808zM236.99968 294.79936h107.60192v-50.00192H236.99968v50.00192z m0 320.19968h499.99872v-50.00192H236.99968v50.00192z m0-160.09728h167.59808v-50.00192H236.99968v50.00192zM945.18272 253.97248l-225.81248 156.14976-225.8432-156.14976 225.8432-156.16512 225.81248 156.16512z m-225.80736-191.0016l-199.35232 132.74112-26.496-27.77088 225.84832-156.17024 225.81248 156.17024-26.84928 28.36992-198.9632-133.34016z m0-86.03136l-199.35232 132.75648-26.496-27.78624 225.84832-156.14976 225.81248 156.16512-26.84928 28.34944-198.9632-133.33504z"  horiz-adv-x="1024" />

    
    <glyph glyph-name="fenxi" unicode="&#59221;" d="M20.48-25.600000000000022h993.28v-71.68H20.48V-25.600000000000022ZM10.24 239.61599999999998l129.024 80.896 233.472-117.76L627.712 588.8l260.096-200.704 125.952 6.144v-35.84l-140.288-7.168-235.52 179.2-251.904-378.88-243.712 123.904L10.24 194.55999999999994v45.056Zm882.688 203.776l59.392 3.072V647.168c0 17.408-12.288 33.792-29.696 33.792h-90.112c-17.408 0-33.792-15.36-33.792-33.792v-131.072l94.208-72.704Zm-34.816-149.504L798.72 337.91999999999996V25.600000000000022h153.6V297.98400000000003l-94.208-4.096ZM614.4 658.432l92.16-70.656V840.704c0 17.408-11.264 24.576-28.672 24.576h-90.112c-16.384 0-34.816-7.168-34.816-24.576v-273.408l61.44 91.136ZM640 459.776l-87.04-129.024V25.600000000000022h153.6v384L640 459.776ZM392.192 84.99199999999996l-84.992 40.96V25.600000000000022h163.84V193.53599999999994l-78.848-108.544ZM358.4 267.264l112.64 160.768v21.504c0 17.408-18.432 26.624-35.84 26.624h-90.112c-17.408 0-37.888-8.192-37.888-26.624v-159.744l51.2-22.528ZM139.264 380.928l86.016-43.008V563.2c0 17.408-16.384 25.6-33.792 25.6h-90.112c-16.384 0-29.696-8.192-29.696-25.6v-225.28l67.584 43.008Zm6.144-167.936l-73.728-46.08v-135.168c0-2.048-1.024-6.144 0-6.144h150.528s3.072 4.096 3.072 6.144V173.05600000000004l-79.872 39.936Zm-1.024 0"  horiz-adv-x="1024" />

    
    <glyph glyph-name="zhuizong" unicode="&#58973;" d="M987.46452701 361.8515625c-8.12394445-63.28125-62.44747704-112.195946-128.29418307-112.19594599-71.42657273 0-129.34174422 57.57311053-129.34174422 128.57210764s57.91517071 128.57210765 129.34174422 128.57210687c65.84670602 0 120.19161768-48.91469599 128.27280402-112.195946a127.31075829 127.31075829 0 0 1-3.03578974 15.75617612l132.65545852 0a32.13233778 32.13233778 0 1 0 0-64.26467476l-132.65545852 0c1.34686478 5.13091203 2.35166782 10.39009684 3.03578974 15.75617612z m-253.55257562 48.5298777a128.05901582 128.05901582 0 0 1 0-64.28605382L149.75760108 346.09538638000004a32.15371605 32.15371605 0 0 0 0 64.26467476L733.91195139 410.36006114z m59.21927739-306.01615317c-7.80326255-63.90123553-61.95576427-113.35040085-127.5886821-113.35040084-70.97761806 0-128.5507286 57.89379244-128.55072858 129.32036516s57.55173148 129.34174422 128.55072858 129.3417442c65.63291782 0 119.78542033-49.47054515 127.61006115-113.37177989a129.49139603 129.49139603 0 0 1-2.84338059 15.39273612l327.52322608 0a31.36270043 31.36270043 0 1 0 0-62.7467799l-327.52322608 0c1.23997029 5.02401833 2.20201678 10.17630941 2.84338059 15.3927361z m-252.33398438 47.3540438a130.34654803 130.34654803 0 0 1 0-62.76815895L148.98796451 88.95117187000005a31.38407948 31.38407948 0 0 0 0 62.76815896l391.80927989-1e-8zM566.51594174 619.33783796c-8.16670177-63.49503819-62.12679515-112.53800694-127.48178838-112.53800694-70.99899711 0-128.57210765 57.89379243-128.57210764 129.34174421 0 71.40519445 57.57311053 129.32036516 128.57210763 129.32036516 65.35499403 0 119.29370757-49.0643478 127.48178839-112.55938522a129.4058806 129.4058806 0 0 1-3.12130517 16.11961535l552.89854359 0a32.90197435 32.90197435 0 1 0 1e-8-65.80394869L563.39463657 603.2182218400001c1.36824307 5.2591848 2.41580421 10.62526408 3.12130517 16.11961613zM314.67367014 669.02217053a130.2610326 130.2610326 0 0 1 1e-8-65.8039487L150.52723842 603.2182218400001a32.9233534 32.9233534 0 0 0 0 65.80394869L314.67367014 669.02217053z m125.13011979 30.6144429c-35.91638502 0-65.05569039-28.43380517-65.0556904-63.4950382 0-35.10399035 29.11792632-63.53779552 65.0556904-63.53779552 35.91638502 0 65.03431134 28.43380516 65.03431211 63.51641647s-29.11792632 63.51641648-65.03431211 63.51641725z m225.76013503-514.24567169c-35.5101877 0-64.28605382-29.13930537-64.28605305-65.05569039 0-35.91638502 28.77586535-65.05569039 64.26467477-65.05569039 35.5101877 0 64.28605382 29.13930537 64.28605304 65.05569039 0 35.91638502-28.77586535 65.05569039-64.28605304 65.05569039z m192.8367824 257.12283546a64.28605382 64.28605382 0 1 1 1e-8-128.5507286 64.28605382 64.28605382 0 0 1-1e-8 128.5507286z"  horiz-adv-x="1356" />

    
    <glyph glyph-name="jibenxinxi" unicode="&#59093;" d="M509.300537 314.811931c160.468085 0 290.942135 130.674011 290.542215 291.342056C799.442831 766.422111 667.869 896.796182 507.800835 895.996341 398.622549 895.39646 303.44148 834.208629 254.351243 744.526466c-0.39992-0.699861-0.899821-1.599682-1.199761-2.299543-0.499901-0.899821-0.899821-1.599682-1.399722-2.499502-33.393359-64.587154-41.091827-140.072142-20.995824-213.357566 15.196978-54.489163 46.190813-103.67938 88.182461-139.972162 50.889879-44.591131 117.576616-71.585763 190.36214-71.585762zM868.029191 280.118831h1.199761l-14.497117 12.497514c-14.997017 14.697077-31.093816 27.294571-47.290594 38.092424-1.099781 0.699861-2.099582 1.599682-3.199364 2.299543-1.699662 1.199761-3.499304 2.199563-5.298946 3.099383-6.698668 4.099185-13.297355 7.898429-19.896043 11.497713-5.598886 2.999403-12.497514 1.999602-17.0966-2.499502-65.486976-63.587353-154.669238-102.779559-252.849711-102.779559-97.680573 0-186.462915 38.792285-251.749931 101.779757-4.799046 4.699065-12.197574 5.598886-17.89644 1.999603-23.695287-14.797057-45.990853-31.493736-66.786717-50.190018C81.485624 215.531676 29.196023 98.155021 29.196023-26.220243v-0.999801c0-4.799046 0-9.09819 0.999801-14.497117 0-1.399722 0.39992-3.599284 1.599682-5.798846 0.09998-0.599881 0.19996-1.499702 0.399921-2.199563 0.19996-1.999602 0.599881-4.199165 1.399721-6.398727l0.199961-0.599881 0.19996-0.59988c0.699861-1.599682 0.999801-1.999602 0.999801-2.699464v-2.099582l0.999801-1.899622c0-0.09998 0.09998-0.599881 0.19996-0.899821 0.19996-0.999801 0.699861-2.499503 1.599682-4.099185 0.999801-2.699463 2.299543-5.398926 4.799046-8.198369v-1.999603l2.499503-2.499503c0.09998-0.19996 0.39992-0.499901 0.4999-0.69986 0.499901-0.699861 1.099781-1.599682 1.899622-2.599483v-0.999802l4.599086-4.599085c1.899622-1.899622 3.199364-3.199364 4.599085-5.298946l0.499901-0.699861 4.599085-4.599085 0.999801-0.499901 0.39992-0.39992c0.999801-0.999801 2.299543-2.299543 4.299145-3.499304l0.399921-0.399921c0.699861-0.699861 1.999602-1.999602 3.599284-2.999403 0.899821-0.699861 1.699662-1.099781 2.299543-1.499702l0.4999-0.4999 1.199762-0.599881c0.19996-0.09998 0.999801-0.699861 1.499701-1.099781 1.099781-0.899821 2.499503-1.899622 4.099185-2.699463 10.597892-5.798847 21.495725-9.298151 36.492742-11.497714l0.599881-0.09998h0.699861c0.699861 0 1.699662-0.09998 2.799443-0.39992 1.699662-0.19996 3.599284-0.599881 5.798847-0.599881h768.747106c2.999403 0 6.498707 0 10.397932 1.099781 12.197574 1.099781 23.695287 4.699065 36.192802 11.497714 1.599682 0.899821 2.999403 1.899622 4.099184 2.699463 0.499901 0.39992 1.199761 0.999801 1.499702 1.099781l1.399722 0.599881 0.4999 0.4999c0.599881 0.19996 1.399722 0.699861 2.299543 1.499702 1.599682 0.999801 2.699463 2.099582 3.599284 2.999403l0.399921 0.399921c2.099582 1.099781 3.499304 2.499503 4.299145 3.499304l0.39992 0.39992 0.999801 0.499901 3.999205 3.999205c1.999602 1.999602 4.099185 4.099185 6.298747 7.298548l1.399722 1.399722c0.999801 0.999801 2.699463 2.699463 3.699264 4.899025 0.19996 0.39992 0.599881 0.899821 0.899821 1.199762 0.09998 0.19996 0.39992 0.499901 0.499901 0.69986 1.599682 1.599682 3.199364 4.199165 3.999204 6.898628l1.099781 1.899623c0.699861 1.399722 1.599682 2.699463 2.199563 3.999204 0.699861 1.499702 1.099781 2.699463 1.499702 3.599284 0.19996 0.599881 0.19996 0.899821 0.4999 1.199762 0.999801 1.999602 2.499503 4.899026 2.799444 9.09819 0.699861 2.299543 1.599682 5.898827 1.899622 9.398131l0.09998 0.09998 0.599881 2.299543c1.199761 4.899026 1.199761 10.397932 1.199761 15.696878v0.999801c-0.29994 116.676795-46.190813 227.054842-126.974746 306.639014z"  horiz-adv-x="1024" />

    
    <glyph glyph-name="Empty" unicode="&#59235;" d="M539.7 491.2l-7.2 26.8c-0.1 0.4-0.5 0.6-0.9 0.5l-262.3-70.3c-0.4-0.1-0.6-0.5-0.5-0.9l7.2-26.8c0.1-0.4 0.5-0.6 0.9-0.5l262.3 70.3c0.4 0 0.6 0.5 0.5 0.9zM490.8 372l-7.2 26.8c-0.1 0.4-0.5 0.6-0.9 0.5l-187-50.1c-0.4-0.1-0.6-0.5-0.5-0.9l7.2-26.8c0.1-0.4 0.5-0.6 0.9-0.5l187 50.1c0.4 0.1 0.6 0.5 0.5 0.9zM436.2 271.6l-111.6-29.9c-0.4-0.1-0.6-0.5-0.5-0.9l7.2-26.8c0.1-0.4 0.5-0.6 0.9-0.5l111.6 29.9c0.4 0.1 0.6 0.5 0.5 0.9l-7.2 26.8c-0.1 0.4-0.5 0.6-0.9 0.5zM535 715.9c2.8-10.4 13.5-16.6 23.9-13.8 10.4 2.8 16.6 13.5 13.8 23.9l-20.2 75.4C549.7 811.8 539 818 528.6 815.2c-10.4-2.8-16.6-13.5-13.8-23.9l20.2-75.4zM635.3 721.3c9.9-4.3 21.4 0.3 25.6 10.2l18.7 59.7c4.3 9.9-0.3 21.4-10.2 25.6s-21.4-0.3-25.6-10.2L625.1 747c-4.3-9.9 0.3-21.4 10.2-25.7zM662.6 674.4c2.8-10.4 13.5-16.6 23.9-13.8l75.4 20.2c10.4 2.8 16.6 13.5 13.8 23.9s-13.5 16.6-23.9 13.8l-75.4-20.2c-10.4-2.8-16.6-13.5-13.8-23.9zM879.3 35.8H385.1l288.5 77.5c7.7 2.1 12.3 10 10.3 17.8-2.1 7.7-10 12.3-17.8 10.3l-355.5-95.3c-7.7-2.1-15.7 2.5-17.8 10.3L174 499.4c-2.1 7.7 2.5 15.7 10.3 17.8l405.3 108.6c7.7 2.1 15.7-2.5 17.8-10.3l51.4-178.6c2.1-7.7 10-12.3 17.8-10.3l0.2 0.1c7.7 2.1 12.3 10 10.3 17.8l-51.4 178.6c-6.3 23.4-30.3 37.2-53.6 31L176.7 545.4c-23.4-6.3-37.2-30.3-31-53.6l118.7-443c4.1-15.4 15.9-26.6 30.2-30.7v-1.2c0-0.3 0.2-0.5 0.5-0.5h584.2c0.3 0 0.5 0.2 0.5 0.5v18.5c0 0.2-0.2 0.4-0.5 0.4zM477-31H309c-0.3 0-0.5-0.2-0.5-0.5V-50c0-0.3 0.2-0.5 0.5-0.5h168c0.3 0 0.5 0.2 0.5 0.5v18.5c0 0.3-0.2 0.5-0.5 0.5z"  horiz-adv-x="1024" />

    
    <glyph glyph-name="Servicemonitoring" unicode="&#58916;" d="M981.333333 132.266667V810.666667H42.666667v-678.4h426.666666V42.666667H253.866667v-85.333334H768v85.333334H554.666667v89.6zM896 725.333333v-211.2h-166.4l-96 174.933334-204.8-234.666667-55.466667 59.733333H128V725.333333zM128 428.8h206.933333l93.866667-102.4 187.733333 215.466667 61.866667-113.066667H896v-211.2H128z"  horiz-adv-x="1024" />

    
    <glyph glyph-name="wodeditu" unicode="&#59284;" d="M921.1 122.5l-84.8 270.2c-7.6 24.3-30 40.8-55.4 40.8h-65.7c-43-69.9-103.1-127.4-143.1-165.5l-6.9-6.6c-14.9-14.3-34.8-22.3-55.4-22.3-20.7 0-40.6 8-55.6 22.4l-8 7.7c-42.2 40.2-100.8 96.3-142.6 164.3h-70.3c-25.6 0-48.1-16.8-55.6-41.4L98.3 128.4c-13.1-43.4 25.9-84.5 69.6-73.5l179.1 45c17.1 4.3 35.1 0.6 49.1-10.1l142-108.1c14.2-10.8 32.5-14.5 49.7-9.9l292.5 76.8c15.4 4 28.4 14.2 36.1 28.2 7.8 13.9 9.5 30.5 4.7 45.7zM476.1 307.9c9.6-9.2 24.6-9.2 34.2-0.1 61.8 58.9 181.6 168.3 181.6 290.4 0 110.2-89 199.5-198.7 199.5s-198.7-89.3-198.7-199.5c0-122.4 118.3-229.9 181.6-290.3z m17.1 365.3c26.9 0.4 51.9-13.8 65.5-37.2 13.6-23.3 13.6-52.2 0-75.5-13.6-23.3-38.6-37.5-65.5-37.2-40.8 0.6-73.6 33.9-73.6 74.9s32.8 74.4 73.6 75z"  horiz-adv-x="1024" />

    
    <glyph glyph-name="-fuwubianpai" unicode="&#58998;" d="M50.086957 425.182609h-33.391305C16.695652 587.686957 96.834783 740.173913 230.4 832.556522l18.921739-27.826087C124.66087 719.026087 50.086957 576.556522 50.086957 425.182609zM512-70.121739c-84.591304 0-168.069565 21.147826-240.417391 62.330435l16.695652 28.93913c67.895652-37.843478 144.695652-57.878261 223.721739-57.878261 82.365217 0 164.730435 22.26087 234.852174 64.556522l16.695652-28.93913C687.86087-46.747826 601.043478-70.121739 512-70.121739zM1007.304348 425.182609h-33.391305c0 153.6-75.686957 297.182609-203.686956 382.886956l18.921739 27.826087c136.904348-92.382609 218.156522-245.982609 218.156522-410.713043zM222.608696 470.817391l-33.391305 5.565218c11.130435 73.46087 47.86087 141.356522 103.513044 191.443478l22.260869-24.486957c-48.973913-45.634783-81.252174-106.852174-92.382608-172.521739zM512 99.06087c-35.617391 0-70.121739 5.565217-102.4 16.695652l10.017391 31.165217c30.052174-10.017391 61.217391-14.469565 92.382609-14.469565 36.730435 0 73.46087 6.678261 107.965217 20.034783l12.243479-31.165218c-38.956522-14.469565-79.026087-22.26087-120.208696-22.260869zM801.391304 470.817391c-10.017391 63.443478-41.182609 122.434783-86.817391 165.843479l23.373913 24.486956c51.2-48.973913 85.704348-114.643478 96.834783-184.765217l-33.391305-5.565218zM503.095652 703.443478h33.391305v-243.756521h-33.391305zM566.839652 354.137043l14.803478 29.94087 219.536696-108.454956-14.781217-29.94087zM519.791304 674.504348c-44.521739 0-80.13913 35.617391-80.13913 80.13913s35.617391 80.13913 80.13913 80.139131 80.13913-35.617391 80.139131-80.139131-35.617391-80.13913-80.139131-80.13913z m0 128c-25.6 0-46.747826-21.147826-46.747826-46.747826s21.147826-46.747826 46.747826-46.747826S567.652174 729.043478 567.652174 754.643478s-21.147826 47.86087-47.86087 47.86087zM519.791304 316.104348c-44.521739 0-80.13913 35.617391-80.13913 80.13913s35.617391 80.13913 80.13913 80.139131 80.13913-35.617391 80.139131-80.139131c1.113043-44.521739-35.617391-80.13913-80.139131-80.13913z m0 126.886956c-25.6 0-46.747826-21.147826-46.747826-46.747826s21.147826-46.747826 46.747826-46.747826 46.747826 21.147826 46.747826 46.747826-20.034783 46.747826-46.747826 46.747826zM847.026087 154.713043c-44.521739 0-80.13913 35.617391-80.13913 80.139131s35.617391 80.13913 80.13913 80.13913 80.13913-35.617391 80.13913-80.13913-35.617391-80.13913-80.13913-80.139131z m0 126.886957c-25.6 0-46.747826-21.147826-46.747826-46.747826s21.147826-46.747826 46.747826-46.747826 46.747826 21.147826 46.747826 46.747826-21.147826 46.747826-46.747826 46.747826zM249.58887 275.545043l204.655304 108.210087 15.604869-29.517913-204.655304-108.210087zM207.026087 154.713043c-44.521739 0-80.13913 35.617391-80.13913 80.139131s35.617391 80.13913 80.13913 80.13913 80.13913-35.617391 80.13913-80.13913-35.617391-80.13913-80.13913-80.139131z m0 126.886957c-25.6 0-46.747826-21.147826-46.747826-46.747826s21.147826-46.747826 46.747826-46.747826 46.747826 21.147826 46.747826 46.747826-20.034783 46.747826-46.747826 46.747826z"  horiz-adv-x="1024" />

    
    <glyph glyph-name="leixing" unicode="&#58887;" d="M492.749 485.274c0-46.08-37.376-83.456-83.456-83.456H203.264c-46.08 0.41-83.456 37.785-83.456 83.456V691.712c0 46.08 37.376 83.456 83.456 83.456h206.029c46.08 0 83.456-37.376 83.456-83.456v-206.438z m419.737 0V691.712c0 46.08-37.376 83.456-83.456 83.456H622.592c-46.08 0-83.456-37.376-83.456-83.456v-206.438c0-46.08 37.376-83.456 83.456-83.456H829.03c46.08 0 83.456 37.376 83.456 83.456z m-48.23 206.438v-206.438a35.094 35.094 0 0 0-35.226-35.226H622.592a35.094 35.094 0 0 0-35.226 35.226V691.712a35.094 35.094 0 0 0 35.226 35.226H829.03a35.094 35.094 0 0 0 35.226-35.226zM492.749 65.946c0-46.08-37.376-83.456-83.456-83.456H203.264c-46.08 0-83.456 37.376-83.456 83.456V272.384c0 46.08 37.376 83.456 83.456 83.456h206.029c46.08 0 83.456-37.376 83.456-83.456v-206.438z m419.737 0c0-46.08-37.376-83.456-83.456-83.456H622.592c-46.08 0-83.456 37.376-83.456 83.456V272.384c0 46.08 37.376 83.456 83.456 83.456H829.03c46.08 0 83.456-37.376 83.456-83.456v-206.438z"  horiz-adv-x="1024" />

    
    <glyph glyph-name="bofang" unicode="&#58901;" d="M512 896a512 512 0 1 1 512-512A512 512 0 0 1 512 896z m-128-718.848V590.848L742.4 384z"  horiz-adv-x="1024" />

    
    <glyph glyph-name="yunpan1" unicode="&#59047;" d="M937.28768 213.50912c10.0096 66.87232-31.19104 131.61984-98.00192 153.18016-66.81088 21.5808-139.21792-6.47168-172.64128-65.792-31.34976 26.1888-75.15136 33.25952-113.58208 18.3296-38.97856-14.01856-65.70496-48.5376-70.17984-88.45824h-11.13088c-65.7152-3.24096-118.05184-56.07936-118.05184-119.7312s52.33664-116.50048 118.05184-119.74144h429.88544c57.91232 0 106.92096 40.99072 115.82976 96.01024 8.92416 56.08448-25.58464 110.02368-80.1792 126.20288zM48.55808 622.34624h591.37024c23.37792 0 43.44832 19.41504 43.44832 42.06592V758.272c0 22.64576-18.94912 42.0608-43.44832 42.0608H48.55808C24.04864 800.3328 5.12 780.91776 5.12 758.272v-93.85984c0-22.65088 18.92864-42.06592 43.43808-42.06592z m67.93216 130.51904c15.58528 0 30.07488-7.54688 37.8624-21.56544a40.76544 40.76544 0 0 0 0-42.07616c-7.78752-12.93312-22.27712-21.5808-37.8624-21.5808-24.49408 0-43.42272 18.33984-43.42272 42.07616s18.92864 43.14624 43.42272 43.14624zM48.55808 386.11968h591.37024c23.37792 0 43.44832 19.41504 43.44832 42.0608v93.8496c0 23.73632-18.94912 42.07616-43.44832 42.07616H48.55808C24.04864 563.01568 5.12 543.60576 5.12 520.94464v-93.84448c0-22.65088 20.05504-40.98048 43.43808-40.98048z m67.93216 130.51904c15.58528 0 30.07488-7.54688 37.8624-21.5808a40.73472 40.73472 0 0 0 0-42.0608c-7.78752-12.94848-22.27712-21.5808-37.8624-21.5808-24.49408 0-43.42272 18.33984-43.42272 42.07616 0 23.72096 18.92864 43.14624 43.42272 43.14624zM286.88896 112.13824c0 80.88064 62.37184 148.8384 143.67232 158.55104 8.9088 23.74144 23.38304 44.23168 42.3168 59.32032H48.55808c-23.38304 0-43.43808-18.3296-43.43808-42.0608v-267.54048c0-22.6304 18.92864-42.0608 43.43808-42.0608h311.82848c-45.66016 30.21312-73.4976 79.84128-73.4976 133.79072z"  horiz-adv-x="1024" />

    
    <glyph glyph-name="peizhi" unicode="&#58988;" d="M754.280448 285.20448c-65.73056 0-119.201792-53.475328-119.201792-119.218176 0-65.736704 53.471232-119.207936 119.201792-119.207936 65.724416 0 119.218176 53.471232 119.218176 119.207936 0 65.742848-53.475328 119.218176-119.218176 119.218176z m0-187.04384c-37.439488 0.047104-67.77856 30.390272-67.81952 67.825664 0 37.404672 30.418944 67.835904 67.81952 67.835904 37.445632-0.034816 67.794944-30.384128 67.835904-67.835904-0.002048-37.394432-30.43328-67.825664-67.835904-67.825664z m0 0M1023.16032 93.554688a25.645056 25.645056 0 0 1-11.8784 15.661056l-47.83104 27.9552a210.014208 210.014208 0 0 1 0.55296 53.471232l46.831616 27.867136a25.710592 25.710592 0 0 1 11.76576 15.75936 25.683968 25.683968 0 0 1-2.822144 19.458048l-57.387008 96.462848a25.690112 25.690112 0 0 1-35.504128 8.761344l-42.133504-25.856c-14.41792 10.786816-29.597696 19.212288-42.063872 25.25184V402.39104a25.7024 25.7024 0 0 1-25.690112 25.696256h-123.324416a25.690112 25.690112 0 0 1-25.690112-25.696256v-40.034304c-18.335744-7.256064-32.401408-16.852992-45.514752-27.766784l-37.967872 22.974464a25.716736 25.716736 0 0 1-35.571712-9.170944l-55.699456-96.892928c-7.057408-12.271616-2.852864-27.936768 9.39008-35.035136l41.756672-24.18688c-1.021952-8.730624-1.527808-17.5104-1.511424-26.302464 0-11.272192 0.933888-22.59968 2.781184-33.859584l-41.781248-24.90368a25.66144 25.66144 0 0 1-8.933376-35.20512l57.40544-96.444416a25.665536 25.665536 0 0 1 35.858432-8.5504l40.321024 25.614336c10.913792-8.83712 22.76352-16.994304 39.462912-23.355392v-60.168192a25.68192 25.68192 0 0 1 25.690112-25.690112h123.324416a25.690112 25.690112 0 0 1 25.690112 25.690112v64.290816a245.23776 245.23776 0 0 1 38.846464 22.929408l46.88896-28.19072a25.675776 25.675776 0 0 1 35.418112 9.056256l56.633344 96.884736a25.56928 25.56928 0 0 1 2.686976 19.480576z m-90.529792-67.981312l-39.95648 24.020992a25.68192 25.68192 0 0 1-30.337024-2.850816c-14.147584-12.62592-34.08896-24.498176-54.700032-32.58368a25.690112 25.690112 0 0 1-16.318464-23.916544v-55.43936h-71.940096v53.434368a25.688064 25.688064 0 0 1-19.699712 24.9856c-22.65088 5.433344-32.323584 13.69088-48.324608 27.342848l-4.07552 3.475456a25.726976 25.726976 0 0 1-30.390272 2.086912l-33.900544-21.551104-30.742528 51.642368 35.500032 21.15584a25.696256 25.696256 0 0 1 11.7248 28.526592 159.404032 159.404032 0 0 0-5.203968 40.06912c0 12.136448 1.163264 23.627776 3.463168 34.152448a25.688064 25.688064 0 0 1-12.220416 27.703296l-34.947072 20.258816 29.831168 51.90656 31.619072-19.122176a25.649152 25.649152 0 0 1 30.636032 3.022848c18.982912 17.34656 32.331776 28.372992 57.571328 35.00032a25.67168 25.67168 0 0 1 19.16928 24.850432v32.95232h71.933952v-34.934784a25.68192 25.68192 0 0 1 15.859712-23.738368c22.945792-9.519104 44.032-22.351872 57.827328-35.2256a25.688064 25.688064 0 0 1 30.949376-3.110912l35.610624 21.839872 30.930944-52.013056-39.729152-23.64416a25.7024 25.7024 0 0 1-12.025856-27.297792 160.415744 160.415744 0 0 0-0.823296-68.712448 25.69216 25.69216 0 0 1 12.066816-27.979776l41.197568-24.080384-30.55616-52.226048z m0 0M581.812224-60.393472c-37.015552-3.192832-75.452416-4.804608-114.214912-4.804608-250.935296 0-411.070464 65.431552-411.070464 110.475264 0 5.750784-1.939456 10.991616-5.138432 15.265792v136.04864c79.120384-57.387008 248.3712-87.089152 416.208896-87.089152 14.190592 0 25.69216 11.503616 25.69216 25.69216s-11.503616 25.696256-25.69216 25.696256c-250.935296 0-411.070464 65.431552-411.070464 110.46912a25.33376 25.33376 0 0 1-5.138432 15.269888v136.04864c79.120384-57.399296 248.3712-87.087104 416.208896-87.087104 6.969344 0 13.89568 0.01024 20.781056 0.12288 13.889536 0.468992 24.87296 11.913216 24.774656 25.808896-0.100352 13.89568-11.249664 25.186304-25.145344 25.450496h-0.395264c-6.633472 0-13.314048-0.069632-20.017152-0.069632-250.935296 0-411.070464 65.501184-411.070464 110.544896a25.35424 25.35424 0 0 1-5.138432 15.271936v136.042496c79.120384-57.387008 248.3712-87.083008 416.208896-87.083008 160.894976 0 323.08224 27.285504 405.932032 80.103424v-234.258432c0-14.190592 11.507712-25.69216 25.696256-25.69216 14.184448 0 25.690112 11.503616 25.690112 25.69216V697.257984c3.299328 8.390656 5.134336 17.135616 5.134336 26.28608 0 106.258432-232.640512 161.857536-462.452736 161.857536-223.76448 0-450.138112-52.729856-461.887488-153.608192a25.462784 25.462784 0 0 1-5.70368-15.958016v-678.264832c0-8.861696 4.491264-16.67072 11.302912-21.286912 38.20544-87.3472 248.393728-132.866048 456.290304-132.866048 40.235008 0 80.150528 1.675264 118.638592 4.984832 14.1312 1.224704 24.610816 13.666304 23.386112 27.809792-1.222656 14.133248-13.666304 24.518656-27.809792 23.394304zM467.597312 834.01728c230.006784 0 383.62112-54.95808 407.672832-98.820096a25.843712 25.843712 0 0 1-1.7408-9.084928v-17.088512c-28.9792-43.350016-180.89984-95.956992-405.932032-95.956992-250.935296 0-411.070464 65.431552-411.070464 110.475264s160.135168 110.475264 411.070464 110.475264z m0 0"  horiz-adv-x="1025" />

    
    <glyph glyph-name="ditu-" unicode="&#59018;" d="M229.12 675.52l-121.28-40.96A64 64 0 0 1 64 572.8v-623.04a32 32 0 0 1 42.24-32L352 1.92V352c-64 82.24-128 184.32-128 267.84a303.36 303.36 0 0 0 5.12 55.68zM917.76 704l-88.96-41.92a275.2 275.2 0 0 0 3.2-43.52c0-83.52-64-185.6-128-267.84V-96l212.16 82.56a64 64 0 0 1 43.84 62.4V672a32 32 0 0 1-42.24 32z m-345.6-499.52L528 161.92l-44.16 42.56c-16 15.68-56 55.36-99.84 106.88v-309.44l288-96V311.36a1638.208 1638.208 0 0 0-99.84-106.88zM768 618.56a167.36 167.36 0 0 1 0 21.44 238.72 238.72 0 0 1-465.92 60.16 237.44 237.44 0 0 1-14.08-81.6 321.6 321.6 0 0 1 64-157.76c9.92-15.68 20.8-32 32-45.44a1583.04 1583.04 0 0 1 144-163.84A1583.68 1583.68 0 0 1 672 416c11.2 15.04 22.08 29.76 32 45.44a321.6 321.6 0 0 1 64 157.12z m-240-77.44a81.92 81.92 0 0 0-50.88 144.32A77.12 77.12 0 0 0 528 704a80.32 80.32 0 0 0 77.76-64 76.8 76.8 0 0 0 2.24-19.2 80.64 80.64 0 0 0-80-79.36z"  horiz-adv-x="1024" />

    
    <glyph glyph-name="shangchuanxiazai" unicode="&#59411;" d="M384 0c-11.2 0-19.2 9.6-19.2 19.2v288c0 11.2 9.6 19.2 19.2 19.2s19.2-9.6 19.2-19.2v-288c0-9.6-8-19.2-19.2-19.2zM480 208c-6.4 0-11.2 1.6-14.4 6.4L384 308.8l-81.6-94.4c-8-8-19.2-9.6-28.8-1.6-8 6.4-9.6 19.2-1.6 28.8l96 112c8 9.6 22.4 9.6 30.4 0l96-112c6.4-8 6.4-20.8-1.6-28.8-3.2-3.2-8-4.8-12.8-4.8zM640 16c-11.2 0-19.2 9.6-19.2 19.2v288c0 11.2 9.6 19.2 19.2 19.2s19.2-9.6 19.2-19.2v-288c0-9.6-8-19.2-19.2-19.2zM640-16c-6.4 0-11.2 3.2-14.4 6.4l-96 112c-6.4 8-6.4 20.8 1.6 28.8s20.8 6.4 28.8-1.6l81.6-94.4 81.6 94.4c6.4 8 19.2 9.6 28.8 1.6 8-6.4 9.6-19.2 1.6-28.8l-96-112c-6.4-3.2-11.2-6.4-17.6-6.4zM740.8 484.8c0 3.2-1.6 4.8-1.6 8 0 132.8-102.4 240-227.2 240s-227.2-107.2-227.2-240c0-3.2 0-6.4-1.6-8 0-3.2 1.6-4.8 1.6-8 0-16-12.8-28.8-28.8-28.8-108.8 0-195.2-92.8-195.2-206.4S147.2 35.2 256 35.2c16 0 28.8-12.8 28.8-28.8s-12.8-30.4-28.8-30.4C116.8-24 3.2 94.4 3.2 241.6c0 136 97.6 249.6 224 264 4.8 160 131.2 288 283.2 288s278.4-128 283.2-288c126.4-14.4 224-126.4 224-264 0-145.6-113.6-265.6-252.8-265.6-16 0-28.8 12.8-28.8 28.8s12.8 28.8 28.8 28.8C873.6 33.6 960 126.4 960 240s-83.2 206.4-192 206.4c-16 0-28.8 12.8-28.8 28.8 0 4.8 1.6 6.4 1.6 9.6z"  horiz-adv-x="1024" />

    
    <glyph glyph-name="wangluoziyuan" unicode="&#59072;" d="M857.6 358.4c12.8-32 38.4-51.2 70.4-51.2 44.8 0 76.8 38.4 76.8 76.8 0 44.8-38.4 76.8-76.8 76.8-32 0-64-19.2-70.4-51.2h-185.6c0 51.2-6.4 108.8-12.8 160 51.2 12.8 102.4 38.4 147.2 64 32-38.4 57.6-89.6 76.8-140.8h57.6c-64 236.8-307.2 377.6-544 313.6-160-32-281.6-153.6-320-307.2h57.6c19.2 51.2 44.8 96 76.8 140.8 44.8-32 96-51.2 147.2-64-12.8-57.6-19.2-108.8-19.2-166.4H166.4c-12.8 32-38.4 51.2-70.4 51.2C51.2 460.8 12.8 428.8 12.8 384s38.4-76.8 76.8-76.8c32 0 64 19.2 70.4 51.2h172.8c0-51.2 6.4-108.8 12.8-160-51.2-12.8-102.4-38.4-147.2-64-32 38.4-57.6 89.6-76.8 140.8h-44.8c64-236.8 307.2-377.6 544-313.6 153.6 38.4 275.2 160 313.6 313.6h-57.6c-12.8-51.2-44.8-96-76.8-140.8-44.8 32-96 51.2-147.2 64 6.4 51.2 12.8 108.8 12.8 160h192zM505.6 774.4c19.2 0 57.6-57.6 83.2-160-25.6-6.4-51.2-6.4-83.2-6.4-25.6 0-57.6 0-83.2 6.4 25.6 102.4 64 160 83.2 160zM396.8 409.6c0 51.2 6.4 102.4 12.8 147.2 32-6.4 64-6.4 96-6.4s64 0 96 6.4c12.8-44.8 12.8-96 19.2-147.2H396.8z m217.6-51.2c0-51.2-6.4-96-12.8-147.2-64 12.8-128 12.8-192 0-6.4 44.8-12.8 96-12.8 147.2h217.6z m-364.8 320c51.2 44.8 108.8 70.4 166.4 83.2-19.2-38.4-38.4-83.2-51.2-134.4-38.4 12.8-76.8 32-115.2 51.2z m0-588.8c38.4 19.2 76.8 38.4 115.2 51.2 12.8-44.8 25.6-96 51.2-134.4-57.6 12.8-115.2 38.4-166.4 83.2z m256-96c-19.2 0-57.6 57.6-83.2 160 57.6 12.8 115.2 12.8 172.8 0-25.6-102.4-70.4-160-89.6-160z m256 96c-51.2-44.8-108.8-70.4-166.4-83.2 25.6 44.8 44.8 89.6 51.2 134.4 38.4-12.8 76.8-32 115.2-51.2z m-115.2 537.6c-12.8 51.2-25.6 96-51.2 134.4 64-12.8 121.6-44.8 166.4-83.2-38.4-19.2-76.8-38.4-115.2-51.2z"  horiz-adv-x="1024" />

    
    <glyph glyph-name="anquanshezhi" unicode="&#58894;" d="M512-50.05552899999998C291.538824 1.0842350000000351 138.179765 191.367529 138.179765 414.358588V703.6687059999999c131.674353 5.903059 257.385412 50.356706 373.940706 131.674353 116.555294-80.474353 242.266353-124.928 373.940705-131.674353v-289.189647c0-222.208-153.419294-413.334588-373.940705-464.474353zM891.060706 751.435294c-124.928 5.842824-244.796235 47.766588-355.448471 125.771294L512 893.952l-23.491765-16.745412C377.916235 799.201882 258.891294 757.338353 133.963294 751.435294H90.352941v-336.173176c0-245.699765 169.321412-455.258353 411.648-511.397647l10.842353-1.746824 8.432941 1.686588c242.326588 55.356235 411.648 265.758118 411.648 510.614589V751.435294h-41.923764zM750.170353 534.287059a20.239059 20.239059 0 0 1-5.903059 14.275765l-4.21647 4.21647a20.239059 20.239059 0 0 1-15.058824 5.842824 17.889882 17.889882 0 0 1-14.215529-6.746353L462.607059 294.490353l-147.576471 156.009412a20.239059 20.239059 0 0 1-29.334588 0.783059l-4.216471-4.216471a20.178824 20.178824 0 0 1-0.843294-29.334588l166.851765-176.850824a21.082353 21.082353 0 0 1 15.058824-6.746353 19.636706 19.636706 0 0 1 14.275764 5.903059l268.288 278.287059a29.635765 29.635765 0 0 1 5.059765 15.962353"  horiz-adv-x="1024" />

    
    <glyph glyph-name="eye_open" unicode="&#59372;" d="M512 608c40 0 79.6-5.5 117.6-16.3 36.8-10.5 72.1-25.9 104.9-45.8 64.9-39.4 118.2-95.4 154.1-161.9-35.9-66.5-89.2-122.5-154.1-161.9-32.8-19.9-68.1-35.3-104.9-45.8C591.6 165.5 552 160 512 160s-79.6 5.5-117.6 16.3c-36.8 10.5-72.1 25.9-104.9 45.8-64.9 39.4-118.2 95.4-154.1 161.9 35.9 66.5 89.2 122.5 154.1 161.9 32.8 19.9 68.1 35.3 104.9 45.8C432.4 602.5 472 608 512 608m0 64c-187.4 0-350.3-104.4-433-257.8-10.2-18.8-10.2-41.6 0-60.4C161.7 200.4 324.6 96 512 96s350.3 104.4 433 257.8c10.2 18.8 10.2 41.6 0 60.4C862.3 567.6 699.4 672 512 672zM512 512c34.2 0 66.3-13.3 90.5-37.5 24.2-24.2 37.5-56.3 37.5-90.5s-13.3-66.3-37.5-90.5C578.3 269.3 546.2 256 512 256s-66.3 13.3-90.5 37.5C397.3 317.7 384 349.8 384 384s13.3 66.3 37.5 90.5c24.2 24.2 56.3 37.5 90.5 37.5m0 64c-106 0-192-86-192-192s86-192 192-192 192 86 192 192-86 192-192 192z"  horiz-adv-x="1024" />

    
    <glyph glyph-name="shujubeifen" unicode="&#59172;" d="M15.7 388.7C15.7 668.4 243.3 896 523 896c197.2 0 366.7-114.3 450.5-279.2h-364l35.9 65.6c-37.7 15.9-79 24.8-122.5 24.8-175.7 0-318.5-142.9-318.5-318.5 0-18.8 2.4-37.1 5.6-55H21.3c-2 18.3-5.6 36.2-5.6 55zM501-128c-197.2 0-366.7 114.3-450.5 279.2h364l-35.9-65.6c37.7-15.9 79-24.8 122.5-24.8 175.7 0 318.5 142.9 318.5 318.5 0 18.8-2.4 37.1-5.6 55h188.8c2-18.3 5.6-36.2 5.6-55-0.1-279.7-227.7-507.3-507.4-507.3z"  horiz-adv-x="1024" />

    
    <glyph glyph-name="gallery-view" unicode="&#59243;" d="M288 608.1279999999999V832H64v-224l224 0.128z m112-672h224V160h-224v-224z m-336 0h224V160H64v-224z m0 336h224v224H64v-224z m336 0h224v224h-224v-224z m336 336H960V832h-224v-223.872z m-112 0V832h-224v-224l224 0.128zM960 272.12800000000004v224h-224v-224H960z m0-336V160h-224v-224H960z"  horiz-adv-x="1024" />

    
    <glyph glyph-name="qrcode" unicode="&#59246;" d="M85.312 810.688V512H384V810.688H85.312zM0 896h469.248v-469.248H0V896z m170.624-170.624h128v-128h-128v128zM0 341.376h469.248v-469.248H0V341.376z m85.312-85.312v-298.624H384V256.064H85.312z m85.312-85.312h128v-128h-128v128zM554.624 896h469.248v-469.248H554.624V896z m85.312-85.312V512h298.624V810.688H639.936z m383.936-682.56H1024v-85.376h-298.752V256.064H639.936V-127.872H554.624V341.376h255.936v-213.248h128V341.376h85.312v-213.248z m-298.624 597.248h128v-128h-128v128z m298.624-853.248h-85.312v85.312h85.312v-85.312z m-213.312 0h-85.312v85.312h85.312v-85.312z"  horiz-adv-x="1024" />

    
    <glyph glyph-name="database" unicode="&#59368;" d="M153.6 450.752v-133.504h716.8V450.752H153.6zM64 539.84h896v-311.68H64v311.68zM64 896h896v-311.68H64V896z m89.6-89.024v-133.568h716.8V806.976H153.6zM64 183.616h896V-128H64v311.68z m89.6-88.96v-133.632h716.8v133.568H153.6z m44.8 667.776h89.6v-44.544H198.4v44.544z m0-356.16h89.6v-44.544H198.4v44.544z m0-356.16h89.6v-44.544H198.4v44.544z"  horiz-adv-x="1024" />

    
    <glyph glyph-name="folder" unicode="&#59398;" d="M85.312 742.4v-716.8h853.376V608H471.36L364.416 742.4h-279.04zM0 832h404.288L511.36 697.6H1024V-64H0V832z"  horiz-adv-x="1024" />

    
    <glyph glyph-name="pausecircle" unicode="&#59405;" d="M512-128A512 512 0 1 0 512 896a512 512 0 0 0 0-1024z m3.008 92.992a416 416 0 1 1 0 832 416 416 0 0 1 0-832zM320 576h128v-384H320V576z m256 0h128v-384H576V576z"  horiz-adv-x="1024" />

    
    <glyph glyph-name="stopcircle" unicode="&#59406;" d="M512-128A512 512 0 1 0 512 896a512 512 0 0 0 0-1024z m3.008 92.992a416 416 0 1 1 0 832 416 416 0 0 1 0-832zM320 576h384v-384H320V576z"  horiz-adv-x="1024" />

    
    <glyph glyph-name="playcircle" unicode="&#59407;" d="M512-128A512 512 0 1 0 512 896a512 512 0 0 0 0-1024z m3.008 92.992a416 416 0 1 1 0 832 416 416 0 0 1 0-832zM383.232 608.384l384-224.896-384-223.104v448z"  horiz-adv-x="1024" />

    
    <glyph glyph-name="delete" unicode="&#59408;" d="M341.312 810.688l64 85.312h213.376l64-85.312H960v-85.376H64V810.688h277.312zM170.688 640h682.624v-768H170.688V640zM256 554.688v-597.376h512V554.688H256z m213.312-85.376v-426.624H384V469.312h85.312z m170.688 0v-426.624H554.688V469.312H640z"  horiz-adv-x="1024" />

    
    <glyph glyph-name="picture" unicode="&#59409;" d="M0 832l1024 0.128V-64H0V832z m74.56-74.688v-746.624H948.48V757.312H74.56z m623.36-271.552a85.12 85.12 0 1 0-0.064 170.368 85.12 85.12 0 0 0 0.128-170.368z m-305.28-179.392l62.72 73.664 152.32-166.72 119.232 89.536L948.48 64v-53.312h-82.048l-151.04 163.392-119.744-89.856-203.008 222.144z m0 0l-251.904-295.744H74.56V80l252.8 297.792 65.28-71.424zM323.904 373.88800000000003l66.048 77.568 68.032-74.24-2.752 2.816-62.72-73.6 0.256-0.32-0.128-0.192-0.256 0.256 0.128 0.192-65.28 71.424-3.328-3.904z"  horiz-adv-x="1024" />

    
    <glyph glyph-name="cog" unicode="&#59416;" d="M903.232 333.82399999999996c2.432 21.824 3.648 38.592 3.648 50.176 0 17.408-1.6 33.792-3.648 50.176l120.64 102.656-113.664 204.544-158.08-52.736a387.328 387.328 0 0 1-88.96 50.176L633.92 896H396.352l-35.328-157.184c-32.064-12.8-61.568-30.208-88.96-50.176l-155.84 52.736L0.192 536.832 120.96 434.176c-2.112-16.384-3.712-33.28-3.712-50.176s1.6-33.792 3.712-50.176L12.544 238.91200000000003 128 29.18399999999997l144 50.176c27.392-20.48 56.896-37.376 88.96-50.176L394.688-128h239.232l29.248 157.184c32.128 12.8 61.568 30.208 88.96 50.176l145.216-50.176 125.12 209.728-119.232 94.912z m-104.256 87.552c2.112-15.872 2.624-26.624 2.624-37.376 0-10.752-1.024-22.016-2.56-37.376l-7.424-57.856 46.848-35.84 56.832-43.008-36.864-61.952-66.816 26.112-54.72 21.504-47.36-34.816a310.4 310.4 0 0 0-65.856-37.376l-55.744-22.016-8.448-57.856-10.496-69.12H475.264l-9.984 69.12-8.448 57.856-55.808 22.016a300.8 300.8 0 0 0-64.704 36.352l-47.936 35.84-55.744-22.016-66.88-26.112-36.864 61.952 56.896 43.008 46.848 35.84-7.36 57.856A400.768 400.768 0 0 0 222.592 384c0 10.24 1.088 22.016 2.688 37.376l7.36 57.856-46.848 35.84-56.896 43.008 36.864 61.952 66.88-26.112 54.72-21.504 47.36 34.816a310.4 310.4 0 0 0 65.792 37.376l55.808 22.016 8.448 57.856 10.496 69.12H548.48l10.048-69.12 8.384-57.856 55.808-22.016a300.8 300.8 0 0 0 64.768-36.352l47.872-35.84 55.808 22.016 66.816 26.112 36.864-61.952-56.32-43.52-46.848-35.84 7.36-57.856zM512 576a192 192 0 1 1 0-384 192 192 0 1 1 0 384z m0-288c-52.8 0-96 43.2-96 96S459.2 480 512 480s96-43.2 96-96S564.8 288 512 288z"  horiz-adv-x="1024" />

    
    <glyph glyph-name="search" unicode="&#59438;" d="M1005.312-18.752l-198.528 198.464A448 448 0 1 1 0 448a448 448 0 0 1 716.288-358.784l198.4-198.4a64 64 0 1 1 90.624 90.432zM448 128.064A320 320 0 1 0 448 768a320 320 0 0 0 0-640z"  horiz-adv-x="1024" />

    
    <glyph glyph-name="indent" unicode="&#59444;" d="M0 832h1024v-128H0V832z m0-768h1024v-128H0v128z m0 384h640v-128H0V448z m768 128l256-196.672L768 192V576z"  horiz-adv-x="1024" />

    
    <glyph glyph-name="outdent" unicode="&#59445;" d="M0 832h1024v-128H0V832Zm0-768h1024v-128H0v128Zm384 384h640v-128H384V448Zm-128-256L0 388.672 256 576v-384Z"  horiz-adv-x="1024" />

    
    <glyph glyph-name="sort-down" unicode="&#59459;" d="M64 576l448-448 448 448z"  horiz-adv-x="1024" />

    
    <glyph glyph-name="sort-up" unicode="&#59460;" d="M960 192L512 640l-448-448z"  horiz-adv-x="1024" />

    
    <glyph glyph-name="caret-right" unicode="&#59461;" d="M256 832l448-448-448-448z"  horiz-adv-x="1024" />

    
    <glyph glyph-name="caret-left" unicode="&#59462;" d="M704 832L256 384l448-448z"  horiz-adv-x="1024" />

    
    <glyph glyph-name="connection" unicode="&#59473;" d="M953.437043 821.378285l-4.031877 4.031877a242.744566 242.744566 0 0 1-342.325516 0L388.974329 607.240843a242.744566 242.744566 0 0 1 0-342.261518l4.031877-4.031877c7.807761-7.871759 16.127506-14.911543 24.767241-21.439343l79.805556 79.805556a130.683998 130.683998 0 0 0-26.1112 20.095385l-4.031876 4.031876a131.195982 131.195982 0 0 0 0 185.402322L685.477249 746.884567a131.195982 131.195982 0 0 0 185.402322 0l4.031877-4.031877a131.25998 131.25998 0 0 0 0-185.402322L776.290468 458.893386a338.549632 338.549632 0 0 0 24.511249-132.347946l152.635326 152.571327a242.744566 242.744566 0 0 1 0 342.325516zM631.078915 507.083911a240.056648 240.056648 0 0 1-24.703243 21.439343L526.506118 448.6537c9.279716-5.503831 18.111445-12.159628 26.1112-20.095385l4.031876-4.031876a131.195982 131.195982 0 0 0 0-185.402322L338.607872 21.146792a131.195982 131.195982 0 0 0-185.402322 0l-4.031877 4.031877a131.25998 131.25998 0 0 0 0 185.402322L247.794653 309.137973a338.549632 338.549632 0 0 0-24.511249 132.347946L70.648078 288.97859a242.744566 242.744566 0 0 1 0-342.325516l4.031877-4.031877a242.808564 242.808564 0 0 1 342.325516 0l218.105321 218.105321a242.744566 242.744566 0 0 1 0 342.325516l-4.031877 4.031877z"  horiz-adv-x="1024" />

    
    <glyph glyph-name="cloud-machine" unicode="&#59490;" d="M320-38.976V-128H64v311.68h256.96L320 183.296v-88.64H153.6v-133.632H320z m640 356.224H448v-89.088H64v311.68h896v-222.592zM153.6 450.752v-133.504h716.8V450.752H153.6zM64 896h896v-311.68H64V896z m89.6-89.024v-133.568h716.8V806.976H153.6z m44.8-44.544h89.6v-44.544H198.4v44.544z m0-356.16h89.6v-44.544H198.4v44.544z m0-356.16h89.6v-44.544H198.4v44.544z m825.6-28.864C1024-62.08 958.912-128 876.288-128h-320C461.44-128 384-49.6 384 46.08c0 84.928 59.136 155.2 141.504 171.84A204.608 204.608 0 0 0 704 320c95.232 0 176.32-63.232 202.112-152.32A151.488 151.488 0 0 0 1024 21.248z m-96 0a55.552 55.552 0 0 1-41.984 52.544l-56.128 12.032-16 55.168A114.24 114.24 0 0 1 704 224c-40.32 0-76.096-20.608-95.232-53.952l-21.696-37.632-42.56-8.576c-38.4-7.744-64.512-39.296-64.512-77.696 0-43.008 34.752-78.144 76.288-78.144h320c29.312 0 51.712 22.656 51.712 53.248z"  horiz-adv-x="1024" />

    
    </font>
</defs>
</svg>
