<?xml version="1.0" encoding="UTF-8"?>
<svg width="16px" height="16px" viewBox="0 0 16 16" version="1.1" xmlns="http://www.w3.org/2000/svg">
    <!-- Generator: Sketch 52.3 (67297) - http://www.bohemiancoding.com/sketch -->
    <title>16-Image_RecentUseWorkspaceNode</title>
    <desc>Created with Sketch.</desc>
    <g id="Page-1" stroke="none" stroke-width="1" fill="none" fill-rule="evenodd">
        <g id="画板" transform="translate(-36.000000, -1778.000000)" fill-rule="nonzero">
            <g id="16" transform="translate(14.000000, 1713.000000)">
                <g id="Catalog" transform="translate(0.000000, 65.000000)">
                    <g id="16-Image_RecentUseWorkspaceNode" transform="translate(22.000000, 0.000000)">
                        <g id="Image_RecentUseWorkspaceNode" transform="translate(1.000000, 1.000000)">
                            <rect id="矩形" stroke="#F0F0F0" x="0.5" y="0.5" width="13" height="14"></rect>
                            <path d="M8.5,2.5 L0.5,2.5 L0.5,14.5 L11.5,14.5 L11.5,5.5 L8.5,5.5 L8.5,2.5 Z" id="合并形状" stroke="#F0F0F0"></path>
                            <path d="M8.99633789,2.71759033 L11.3223267,5.03430176" id="直线-131" stroke="#F0F0F0" stroke-linecap="square"></path>
                            <path d="M6,10 L10,10 L10,13 L6,13 L6,10 Z M8,9 L5,9 L5,11 L4,11 L4,8 L8,8 L8,9 Z M6,7 L3,7 L3,9 L2,9 L2,6 L6,6 L6,7 Z" id="合并形状" fill="#F0F0F0"></path>
                        </g>
                    </g>
                </g>
            </g>
        </g>
    </g>
</svg>