<?xml version="1.0" encoding="UTF-8"?>
<svg width="16px" height="16px" viewBox="0 0 16 16" version="1.1" xmlns="http://www.w3.org/2000/svg">
    <!-- Generator: Sketch 52.3 (67297) - http://www.bohemiancoding.com/sketch -->
    <title>16-Image_DB</title>
    <desc>Created with Sketch.</desc>
    <g id="Page-1" stroke="none" stroke-width="1" fill="none" fill-rule="evenodd">
        <g id="画板" transform="translate(-14.000000, -1799.000000)" fill-rule="nonzero">
            <g id="16" transform="translate(14.000000, 1713.000000)">
                <g id="Catalog" transform="translate(0.000000, 65.000000)">
                    <g id="16-Image_DB" transform="translate(0.000000, 21.000000)">
                        <g id="Image_DB" transform="translate(1.000000, 1.000000)">
                            <rect id="合并形状" fill="#F0F0F0" x="0" y="13" width="14" height="1"></rect>
                            <ellipse id="椭圆形" stroke="#F0F0F0" cx="7" cy="3" rx="6.5" ry="2.5"></ellipse>
                            <path d="M14,9 C14,10.6568542 10.8659932,12 7,12 C3.13400675,12 9.46409436e-14,10.6568542 2.14348011e-27,9 L0,2.28334808 L1,2.62008116 L1,6 C1,6.31017241 1.46704125,6.78340506 2.44417183,7.20217531 C3.61601314,7.70439302 5.24676441,8 7,8 C8.75323559,8 10.3839869,7.70439302 11.5558282,7.20217531 C12.5329588,6.78340506 13,6.31017241 13,6 L13,2.62008116 L14,2.29853465 L14,9 Z M13,9 L13,7.54610855 C11.7751029,8.41732193 9.54632514,9 7,9 C4.45367486,9 2.22489715,8.41732193 1,7.54610855 L1,9 C1,9.31017241 1.46704125,9.78340506 2.44417183,10.2021753 C3.61601314,10.704393 5.24676441,11 7,11 C8.75323559,11 10.3839869,10.704393 11.5558282,10.2021753 C12.5329588,9.78340506 13,9.31017241 13,9 Z" id="合并形状" fill="#F0F0F0"></path>
                            <path d="M7,13.5 L7,11.8189697" id="直线-130" stroke="#F0F0F0" stroke-linecap="square"></path>
                        </g>
                    </g>
                </g>
            </g>
        </g>
    </g>
</svg>