<?xml version="1.0" encoding="UTF-8"?>
<svg width="16px" height="16px" viewBox="0 0 16 16" version="1.1" xmlns="http://www.w3.org/2000/svg">
    <!-- Generator: Sketch 52.3 (67297) - http://www.bohemiancoding.com/sketch -->
    <title>16-Image_OnlineDB</title>
    <desc>Created with Sketch.</desc>
    <g id="Page-1" stroke="none" stroke-width="1" fill="none" fill-rule="evenodd">
        <g id="画板" transform="translate(-36.000000, -1799.000000)" fill-rule="nonzero" stroke="#F0F0F0">
            <g id="16" transform="translate(14.000000, 1713.000000)">
                <g id="Catalog" transform="translate(0.000000, 65.000000)">
                    <g id="16-Image_OnlineDB" transform="translate(22.000000, 21.000000)">
                        <g id="Image_OnlineDB" transform="translate(1.000000, 1.000000)">
                            <g id="分组-174">
                                <circle id="椭圆形" cx="7.5" cy="7.5" r="7"></circle>
                            </g>
                            <path d="M7.5,4.5 L14,4.5 L13.5,4 L13.5,5 L14,4.5 L7.5,4.5 Z M7.5,4.5 L1,4.5 L1.5,5 L1.5,4 L1,4.5 L7.5,4.5 Z M7.5,7.5 L15,7.5 L14.5,7 L14.5,8 L15,7.5 L7.5,7.5 Z M7.5,7.5 L0,7.5 L0.5,8 L0.5,7 L0,7.5 L7.5,7.5 Z M7.5,10.5 L14,10.5 L13.5,10 L13.5,11 L14,10.5 L7.5,10.5 Z M7.5,10.5 L1,10.5 L1.5,11 L1.5,10 L1,10.5 L7.5,10.5 Z" id="合并形状" fill="#D8D8D8"></path>
                            <ellipse id="椭圆形" cx="7.5" cy="7.5" rx="3" ry="7"></ellipse>
                        </g>
                    </g>
                </g>
            </g>
        </g>
    </g>
</svg>