<?xml version="1.0" encoding="UTF-8"?>
<svg width="24px" height="24px" viewBox="0 0 24 24" version="1.1" xmlns="http://www.w3.org/2000/svg">
    <!-- Generator: Sketch 52.3 (67297) - http://www.bohemiancoding.com/sketch -->
    <title>24-Image_New</title>
    <desc>Created with Sketch.</desc>
    <g id="Page-1" stroke="none" stroke-width="1" fill="none" fill-rule="evenodd">
        <g id="画板" transform="translate(-14.000000, -1876.000000)" fill="#F0F0F0" fill-rule="nonzero">
            <g id="24" transform="translate(14.000000, 1876.000000)">
                <g id="24-Image_New">
                    <g id="Image_New" transform="translate(3.000000, 3.000000)">
                        <path d="M13,17 L13,18 L0,18 L0,-5.68434189e-14 L8.10107422,-5.68434189e-14 L10.4536133,3 L18,3 L18,13 L17,13 L17,4 L9.96699095,4 L7.61445188,1 L1,1 L1,17 L13,17 Z M16,17 L17,17 L17,16 L18,16 L18,18 L16,18 L16,17 Z" id="合并形状"></path>
                        <path d="M14,14 L14,10 L15,10 L15,14 L19,14 L19,15 L15,15 L15,19 L14,19 L14,15 L10,15 L10,14 L14,14 Z" id="合并形状"></path>
                    </g>
                </g>
            </g>
        </g>
    </g>
</svg>