<?xml version="1.0" encoding="UTF-8"?>
<svg width="16px" height="16px" viewBox="0 0 16 16" version="1.1" xmlns="http://www.w3.org/2000/svg">
    <!-- Generator: Sketch 52.3 (67297) - http://www.bohemiancoding.com/sketch -->
    <title>16-Image_RecentUseDatasource</title>
    <desc>Created with Sketch.</desc>
    <g id="Page-1" stroke="none" stroke-width="1" fill="none" fill-rule="evenodd">
        <g id="画板" transform="translate(-58.000000, -1799.000000)" fill-rule="nonzero">
            <g id="16" transform="translate(14.000000, 1713.000000)">
                <g id="Catalog" transform="translate(0.000000, 65.000000)">
                    <g id="16-Image_RecentUseDatasource" transform="translate(44.000000, 21.000000)">
                        <g id="Image_RecentUseDatasource" transform="translate(1.000000, 1.000000)">
                            <ellipse id="椭圆形" stroke="#F0F0F0" cx="7" cy="3.5" rx="6.5" ry="3"></ellipse>
                            <path d="M14,12 C14,13.6568542 10.8659932,15 7,15 C3.13400675,15 0,13.6568542 0,12 L0,3.57775879 L1,4 L1,8 C1,8.31017241 1.46704125,8.78340506 2.44417183,9.20217531 C3.61601314,9.70439302 5.24676441,10 7,10 C8.75323559,10 10.3839869,9.70439302 11.5558282,9.20217531 C12.5329588,8.78340506 13,8.31017241 13,8 L13,4 L14,3.59680176 L14,12 Z M13,12 L13,9.54610855 C11.7751029,10.4173219 9.54632514,11 7,11 C4.45367486,11 2.22489715,10.4173219 1,9.54610855 L1,10.4538915 L1,12 C1,12.3101724 1.46704125,12.7834051 2.44417183,13.2021753 C3.61601314,13.704393 5.24676441,14 7,14 C8.75323559,14 10.3839869,13.704393 11.5558282,13.2021753 C12.5329588,12.7834051 13,12.3101724 13,12 Z" id="合并形状" fill="#F0F0F0"></path>
                        </g>
                    </g>
                </g>
            </g>
        </g>
    </g>
</svg>