<?xml version="1.0" encoding="UTF-8"?>
<svg width="24px" height="24px" viewBox="0 0 24 24" version="1.1" xmlns="http://www.w3.org/2000/svg">
    <!-- Generator: Sketch 52.3 (67297) - http://www.bohemiancoding.com/sketch -->
    <title>24-Image_Delete</title>
    <desc>Created with Sketch.</desc>
    <g id="Page-1" stroke="none" stroke-width="1" fill="none" fill-rule="evenodd">
        <g id="画板" transform="translate(-44.000000, -1905.000000)" fill="#F0F0F0">
            <g id="24" transform="translate(14.000000, 1876.000000)">
                <g id="24-Image_Delete" transform="translate(30.000000, 29.000000)">
                    <path d="M5,7 L3,7 L3,6 L8,6 L8,3 L17,3 L17,6 L22,6 L22,7 L20,7 L20,21 L5,21 L5,7 Z M6,7 L6,20 L19,20 L19,7 L6,7 Z M9,6 L16,6 L16,4 L9,4 L9,6 Z M12,9 L13,9 L13,18 L12,18 L12,9 Z M8,10 L9,10 L9,17 L8,17 L8,10 Z M16,10 L17,10 L17,17 L16,17 L16,10 Z" id="合并形状"></path>
                </g>
            </g>
        </g>
    </g>
</svg>